<svg xmlns="http://www.w3.org/2000/svg" xmlns:xlink="http://www.w3.org/1999/xlink" height="800" width="1200" viewBox="-3.67566 -3.034775 31.85572 18.20865"><defs><clipPath id="q"><path d="M255 354h69v8.1797h-69zm0 0"/></clipPath><clipPath id="c"><path d="M.3203 1H6v7.1797H.3203zm0 0"/></clipPath><clipPath id="d"><path d="M9 .9414h7v7.2383H9zm0 0"/></clipPath><clipPath id="e"><path d="M20 1h5v7.1797h-5zm0 0"/></clipPath><clipPath id="f"><path d="M28 1h7v7.1797h-7zm0 0"/></clipPath><clipPath id="g"><path d="M38 1h2v7.1797h-2zm0 0"/></clipPath><clipPath id="h"><path d="M43 1h7v7.1797h-7zm0 0"/></clipPath><clipPath id="i"><path d="M53 .9414h7v7.2383h-7zm0 0"/></clipPath><clipPath id="j"><path d="M63 .9414h5.6602v7.2383H63zm0 0"/></clipPath><clipPath id="b"><path d="M0 0h69v9H0z"/></clipPath><clipPath id="t"><path d="M254.4219 337H269v15h-14.5781zm0 0"/></clipPath><clipPath id="k"><path d="M.4219.7305h14.2539v14.246H.4218zm0 0"/></clipPath><clipPath id="l"><path d="M.746.7305H15v14.246H.746zm0 0"/></clipPath><clipPath id="m"><path d="M.0703.7305h14.25v14.246H.0703zm0 0"/></clipPath><clipPath id="A"><path d="M254.4219 327.7695H269V342h-14.5781zm0 0"/></clipPath><clipPath id="n"><path d="M.4219.7695h14.2539v14.2266H.4218zm0 0"/></clipPath><clipPath id="D"><path d="M268 327.7695h15V342h-15zm0 0"/></clipPath><clipPath id="o"><path d="M.746.7695H15v14.2266H.746zm0 0"/></clipPath><clipPath id="G"><path d="M283 327.7695h15V343h-15zm0 0"/></clipPath><clipPath id="p"><path d="M.0703.7695h14.25v14.254H.0703zm0 0"/></clipPath><mask id="r"><g filter="url(#a)"><path fill-opacity=".8" d="M0 0h595.276v841.89H0z"/></g></mask><mask id="u"><g filter="url(#a)"><path fill-opacity=".8" d="M0 0h595.276v841.89H0z"/></g></mask><mask id="w"><g filter="url(#a)"><path fill-opacity=".8" d="M0 0h595.276v841.89H0z"/></g></mask><mask id="y"><g filter="url(#a)"><path fill-opacity=".8" d="M0 0h595.276v841.89H0z"/></g></mask><mask id="B"><g filter="url(#a)"><path fill-opacity=".8" d="M0 0h595.276v841.89H0z"/></g></mask><mask id="E"><g filter="url(#a)"><path fill-opacity=".8" d="M0 0h595.276v841.89H0z"/></g></mask><mask id="H"><g filter="url(#a)"><path fill-opacity=".8" d="M0 0h595.276v841.89H0z"/></g></mask><g id="s" clip-path="url(#b)"><g clip-path="url(#c)"><path d="M.3203 1.082h.5508v2.797h4.2422V1.082h.5469v6.957h-.547V4.371H.8712v3.668H.3203zm0 0"/></g><g clip-path="url(#d)"><path d="M15.379 4.586v-.0313c0-1.629-1.0313-3.0703-2.8634-3.0703-1.7968 0-2.8203 1.4101-2.8203 3.0508v.0312c0 1.6484 1.043 3.082 2.8477 3.082 1.836 0 2.836-1.414 2.836-3.0625m-6.254-.0117v-.0195C9.125 2.621 10.3633.953 12.5352.953c2.168 0 3.414 1.6602 3.414 3.5938v.0195c0 1.9414-1.2344 3.5938-3.414 3.5938-2.1602 0-3.4102-1.6524-3.4102-3.586"/></g><g clip-path="url(#e)"><path d="M20.004 1.082h.5585v6.457h3.8594v.5h-4.418zm0 0"/></g><g clip-path="url(#f)"><path d="M31.0156 7.539c2.0938 0 2.75-1.2656 2.75-2.9648v-.0195c0-1.7149-.668-2.9844-2.7695-2.9844h-1.793v5.9688zm-2.375-6.457h2.3867c2.4649 0 3.297 1.5117 3.297 3.4649v.0195c0 1.9336-.8321 3.4766-3.297 3.4766h-2.3867zm0 0"/></g><g clip-path="url(#g)"><path d="M38.461 1.0781h.5507v6.961h-.5508zm0 0"/></g><g clip-path="url(#h)"><path d="M43.6523 1.082h.4805l4.5664 6.0157V1.082h.5508v6.957h-.4648l-4.582-6.035v6.035h-.5509zm0 0"/></g><g clip-path="url(#i)"><path d="M59.4102 8.039h-.5313l-.0078-.9804c-.5.707-1.4062 1.121-2.3164 1.121-2.2578 0-3.3984-1.6913-3.3984-3.6132V4.547c0-1.8477 1.1601-3.6055 3.4062-3.6055 1.1992 0 2.0313.5234 2.5625 1.0234l-.332.4102c-.4922-.4688-1.129-.9023-2.2305-.9023-1.8438 0-2.8164 1.4726-2.8164 3.0625v.0195c0 1.6601.9922 3.1015 2.8945 3.1015 1.0117 0 2.0352-.5195 2.2305-1.5195l-.0117-1.1992h-1.7461v-.461h2.2969zm0 0"/></g><g clip-path="url(#j)"><path d="M63.6836 7.3633l.2383-.4805c.7343.5977 1.4687.7656 2.3242.7656 1.0312 0 1.8555-.5898 1.8555-1.375V6.254c0-.7266-.4297-1.1172-1.9336-1.6484-1.3946-.5118-2.0899-.9414-2.0899-1.8868v-.0195c0-1.0312 1.0703-1.7344 2.1602-1.7344.7539 0 1.539.2422 2.1289.586l-.2461.4531c-.6172-.375-1.2656-.539-1.9023-.539-.7657 0-1.5626.5078-1.5626 1.2148v.0117c0 .6367.4727.961 1.707 1.3945 1.6915.5977 2.297 1.1485 2.297 2.1368v.0234c0 1.0586-1.0391 1.9023-2.4336 1.9023-.922 0-1.8243-.2265-2.543-.7851"/></g></g><g clip-path="url(#k)" id="v"><path d="M7.586 4.996c.785 0 1.4648.2813 2.0234.84.5586.5585.8398 1.2187.8398 2.0078 0 .7851-.2812 1.457-.8398 2.0156-.5586.5508-1.2735.8398-2.0586.8398-.789 0-1.4336-.289-1.9922-.8398C5 9.3008 4.7187 8.6289 4.7187 7.8437c0-.789.2813-1.4492.8399-2.0078s1.2383-.8398 2.0273-.8398M2.5117 2.8125C1.1211 4.2109.422 5.8789.422 7.8515c0 1.9727.6992 3.6407 2.0898 5.0391 1.3945 1.3907 3.0625 2.0899 5.039 2.0899 1.9727 0 3.6407-.6992 5.0391-2.0899 1.3086-1.3086 2-2.8554 2.0782-4.664.0078-.129.0078-.254.0078-.375V7.668c-.043-1.8868-.7344-3.504-2.086-4.8555C11.1914 1.4141 9.5391.7305 7.5664.7305c-1.9726 0-3.6601.6836-5.0547 2.082"/></g><g clip-path="url(#l)" id="x"><path d="M7.8945 4.996c.793 0 1.4805.2813 2.039.84.5587.5585.84 1.2187.84 2.0078 0 .7851-.2813 1.457-.84 2.0156-.5585.5508-1.246.8398-2.039.8398-.7968 0-1.453-.289-2.0117-.8398-.5586-.5586-.8398-1.2305-.8398-2.0157 0-.789.2812-1.4492.8398-2.0078s1.2149-.8398 2.0117-.8398M2.832 2.8125C1.4336 4.2109.746 5.8789.746 7.8515c0 1.9727.6876 3.6407 2.086 5.0391 1.3907 1.3907 3.0977 2.0899 5.0625 2.0899 1.9649 0 3.629-.6992 5.0196-2.0899 1.3086-1.3086 1.9882-2.8554 2.078-4.664 0-.129.0079-.254.0079-.375V7.668c-.043-1.8868-.7344-3.504-2.086-4.8555C11.5235 1.4141 9.8595.7305 7.8946.7305c-1.9648 0-3.6718.6836-5.0625 2.082"/></g><g clip-path="url(#m)" id="z"><path d="M7.207 5.0234c.797 0 1.4922.25 2.0508.8086.5586.5625.836 1.2266.836 2.0117 0 .7852-.2774 1.457-.836 2.0157-.5586.5508-1.2539.8398-2.0508.8398-.793 0-1.4414-.289-2.0039-.8398-.5586-.5586-.836-1.2305-.836-2.0157 0-.7851.2774-1.4492.836-2.0117.5625-.5586 1.211-.8086 2.004-.8086M2.1562 2.8125C.7577 4.2109.0703 5.8789.0703 7.8515c0 1.9727.6875 3.6407 2.086 5.0391 1.3984 1.3907 3.0859 2.086 5.0507 2.086 1.9688 0 3.6407-.6953 5.0274-2.086 1.3086-1.3086 1.9922-2.8554 2.0781-4.664 0-.129.0078-.254.0078-.375V7.668c-.043-1.8868-.7305-3.504-2.086-4.8555C10.8478 1.4141 9.1759.7305 7.207.7305c-1.9648 0-3.6523.6836-5.0507 2.082"/></g><g clip-path="url(#n)" id="C"><path d="M7.5508 5.039c.7851 0 1.5.2813 2.0586.84.5586.5585.8398 1.2226.8398 2.0077 0 .7852-.2812 1.4649-.8398 2.0156-.5586.5508-1.2735.8282-2.0586.8282-.789 0-1.4336-.2774-1.9922-.8282C5 9.3516 4.7187 8.672 4.7187 7.8867c0-.7851.2813-1.4492.8399-2.0078s1.2031-.8398 1.9922-.8398m7.1172 3.2304c.0078-.1289.0078-.2539.0078-.375V7.711c-.043-1.8867-.7344-3.5-2.086-4.8554C11.1914 1.457 9.5234.7695 7.5508.7695c-1.9766 0-3.6446.6875-5.039 2.086-1.3907 1.3984-2.09 3.0664-2.09 5.039 0 1.9649.6993 3.6524 2.09 5.039 1.3944 1.3907 3.0624 2.0626 5.039 2.0626 1.9726 0 3.6406-.6719 5.039-2.0625 1.3086-1.3008 2-2.8633 2.0782-4.664"/></g><g clip-path="url(#o)" id="F"><path d="M7.8945 5.039c.793 0 1.4805.2813 2.039.84.5587.5585.84 1.2226.84 2.0077 0 .7852-.2813 1.4649-.84 2.0156-.5585.5508-1.246.8282-2.039.8282-.7968 0-1.453-.2774-2.0117-.8282-.5586-.5507-.8398-1.2304-.8398-2.0156 0-.7851.2812-1.4492.8398-2.0078s1.2149-.8398 2.0117-.8398m7.0977 3.2304c0-.1289.0078-.2539.0078-.375V7.711c-.043-1.8867-.7344-3.5-2.086-4.8554C11.5235 1.457 9.8595.7695 7.8946.7695c-1.9648 0-3.6718.6875-5.0625 2.086C1.4336 4.2539.746 5.9219.746 7.8945c0 1.9649.6876 3.6524 2.086 5.039 1.3907 1.3907 3.0977 2.0626 5.0625 2.0626 1.9649 0 3.629-.6719 5.0196-2.0625 1.3086-1.3008 1.9882-2.8633 2.078-4.664"/></g><g clip-path="url(#p)" id="I"><path d="M9.2578 5.879c.5586.5585.8399 1.2226.8399 2.0077 0 .7852-.2813 1.4688-.8399 2.0156-.5586.5508-1.2539.8282-2.0508.8282-.793 0-1.4453-.2774-2.0039-.8282-.5586-.5468-.836-1.2304-.836-2.0156 0-.7851.2774-1.4492.836-2.0078s1.211-.8398 2.004-.8398c.7968 0 1.4921.2812 2.0507.8398m5.0625 2.0156V7.711c-.043-1.8867-.7305-3.5-2.086-4.8554C10.8478 1.457 9.1759.7695 7.207.7695c-1.9648 0-3.6523.6875-5.0507 2.086C.7577 4.2539.0703 5.9219.0703 7.8945c0 1.9649.6875 3.6524 2.086 5.039 1.3984 1.3907 3.0859 2.09 5.0507 2.09 1.9688 0 3.6407-.6993 5.0274-2.09 1.3086-1.3007 1.9922-2.8632 2.0781-4.664 0-.1289.0078-.25.0078-.375"/></g><filter id="a" filterUnits="objectBoundingBox" x="0" y="0" width="1" height="1"><feColorMatrix in="SourceGraphic" values="0 0 0 0 1 0 0 0 0 1 0 0 0 0 1 0 0 0 1 0"/></filter></defs><g transform="translate(-94.5075 -118.685)"><use y="148.9324" x="96.5206" xlink:href="#aE" width="100%" height="100%" transform="translate(4.753 3.0551) scale(.35278)" fill="#0073c7"/><use y="185.2017" x="41.0477" xlink:href="#aF" width="100%" height="100%" transform="translate(4.753 3.0551) scale(.35278)"/><use y="236.2017" x="42.2941" xlink:href="#aF" width="100%" height="100%" transform="translate(4.753 3.0551) scale(.35278)"/><use y="287.2017" x="259.7675" xlink:href="#aF" width="100%" height="100%" transform="translate(4.753 3.0551) scale(.35278)"/><use y="287.2017" x="299.7275" xlink:href="#aF" width="100%" height="100%" transform="translate(4.753 3.0551) scale(.35278)"/><use y="86.8661" x="351.6257" xlink:href="#aG" width="100%" height="100%" transform="translate(4.753 3.0551) scale(.35278)" fill="#0073c7"/><use y="236.2017" x="393.7696" xlink:href="#aF" width="100%" height="100%" transform="translate(4.753 3.0551) scale(.35278)"/><use y="236.2017" x="412.5136" xlink:href="#aF" width="100%" height="100%" transform="translate(4.753 3.0551) scale(.35278)"/><use y="779.8742" x="30.8364" xlink:href="#aH" width="100%" height="100%" transform="translate(4.753 3.0551) scale(.35278)"/><use y="779.8742" x="535.9092" xlink:href="#aH" width="100%" height="100%" transform="translate(4.753 3.0551) scale(.35278)"/><use y="786.8762" x="540.5664" xlink:href="#aH" width="100%" height="100%" transform="translate(4.753 3.0551) scale(.35278)"/><use y="793.8782" x="528.8382" xlink:href="#aH" width="100%" height="100%" transform="translate(4.753 3.0551) scale(.35278)"/><use y="800.8802" x="460.3998" xlink:href="#aH" width="100%" height="100%" transform="translate(4.753 3.0551) scale(.35278)"/><use y="800.8802" x="523.0134" xlink:href="#aH" width="100%" height="100%" transform="translate(4.753 3.0551) scale(.35278)"/><use y="807.8822" x="49.1184" xlink:href="#aH" width="100%" height="100%" transform="translate(4.753 3.0551) scale(.35278)"/><path d="M111.234 124.4217a.6829.6829 0 00-.0798.0854.788.788 0 00-.0717.1089 1.0417 1.0417 0 00-.062.1295 2.196 2.196 0 00-.0524.1516 1.7108 1.7108 0 00-.0386.1612 1.2959 1.2959 0 00-.0234.1613 1.4102 1.4102 0 00-.008.1598c0 .0538.003.1061.008.1599.005.0537.0138.1033.0234.1488a.822.822 0 00.0372.1254.5448.5448 0 00.0524.102.465.465 0 00.0648.0799.2982.2982 0 00.0758.0496.2031.2031 0 00.0799.0165.2225.2225 0 00.0827-.0165.4074.4074 0 00.0882-.0538.6798.6798 0 00.0854-.0827.7508.7508 0 00.0758-.1089 1.08 1.08 0 00.066-.1336 1.6103 1.6103 0 00.0552-.1585 1.3088 1.3088 0 00.04-.1599 1.5808 1.5808 0 00.0248-.1585 2.73 2.73 0 00.01-.1584c0-.0524-.003-.1034-.008-.1557v-.011c0-.003-.001-.007-.001-.01 0-.004 0-.008-.001-.011 0-.003 0-.007-.001-.01v-.005c0-.001 0-.004-.001-.005v-.01a1.2212 1.2212 0 00-.029-.1447.6556.6556 0 00-.0413-.1186.5208.5208 0 00-.0551-.095.3207.3207 0 00-.0675-.069.2443.2443 0 00-.0786-.0427.18.18 0 00-.08-.007.2177.2177 0 00-.0826.0262.3843.3843 0 00-.0854.0593m.124 1.086a.1139.1139 0 01-.0345.022.08.08 0 01-.033.008.0767.0767 0 01-.0332-.005.129.129 0 01-.0565-.0496.3136.3136 0 01-.022-.0413c-.005-.0152-.011-.0317-.0152-.0496-.004-.0179-.007-.0386-.01-.0593a.4688.4688 0 01-.004-.0648c0-.022.001-.0427.004-.0648a.2918.2918 0 01.01-.0648.4909.4909 0 01.0152-.066.7093.7093 0 01.022-.062.5781.5781 0 01.0248-.0525.8083.8083 0 01.029-.044.3826.3826 0 01.033-.0332.1514.1514 0 01.0345-.0234.149.149 0 01.0344-.01.0835.0835 0 01.062.022.1303.1303 0 01.0275.0288c.008.0124.0166.0248.0221.04a.2533.2533 0 01.0165.0496.7355.7355 0 01.011.0606c.001.0221.003.0427.003.0662a.3713.3713 0 01-.003.0661.4967.4967 0 01-.008.0661c-.006.022-.011.0455-.0179.0675a.5998.5998 0 01-.022.0634.5689.5689 0 01-.0262.0524c-.008.0165-.0193.0303-.0289.0441-.011.0124-.022.0248-.0345.0331m-.4886-4.3596a.8513.8513 0 00-.0758.0923 1.4253 1.4253 0 00-.0648.1116c-.0207.04-.04.0827-.0565.1282a1.499 1.499 0 00-.0482.146 1.6755 1.6755 0 00-.0372.1544 1.2928 1.2928 0 00-.022.1488 1.1696 1.1696 0 00-.008.1447c0 .047.003.0937.007.1406.005.0482.0124.0909.0207.1295.01.0386.0207.073.0345.1034a.2917.2917 0 00.0469.0813.236.236 0 00.0593.0579.1745.1745 0 00.0689.0289.1736.1736 0 00.0717-.001.257.257 0 00.0772-.0331.5088.5088 0 00.0799-.0648.8586.8586 0 00.0772-.091.9764.9764 0 00.0689-.113 1.056 1.056 0 00.0606-.1323 1.5346 1.5346 0 00.0524-.153 1.4953 1.4953 0 00.0372-.1516c.01-.0496.0179-.0978.0234-.146.004-.0482.007-.0951.008-.142 0-.0468-.001-.0937-.005-.1392 0-.003 0-.005-.001-.008v-.01c-.001-.003-.001-.007-.001-.01s-.001-.006-.001-.008v-.005c0-.001-.001-.003-.001-.004v-.008a1.2759 1.2759 0 00-.0248-.124.7197.7197 0 00-.0372-.0978.377.377 0 00-.0496-.073.2586.2586 0 00-.062-.0496.197.197 0 00-.0703-.022.1845.1845 0 00-.073.01.2997.2997 0 00-.0758.04.398.398 0 00-.0772.0703m.1074.9467a.2523.2523 0 01-.0317.0275.114.114 0 01-.0303.0138.0627.0627 0 01-.0303.001.0954.0954 0 01-.0276-.011.113.113 0 01-.0248-.022.178.178 0 01-.0179-.0317c-.005-.0124-.011-.0262-.0138-.0413a.6289.6289 0 01-.01-.0524c-.001-.0179-.003-.0372-.003-.0565 0-.0193.001-.0386.003-.0579.003-.0207.006-.04.01-.0606a.4376.4376 0 01.0152-.062c.005-.022.0124-.0413.0193-.0606a.4736.4736 0 01.0234-.051.2388.2388 0 01.0276-.0455.1882.1882 0 01.0303-.0372.1963.1963 0 01.0303-.0275.1225.1225 0 01.0303-.0152.081.081 0 01.0303-.003c.01.001.018.004.0276.01.01.006.018.0124.0248.0207a.141.141 0 01.0207.0317c.006.011.01.0248.0138.0413a.5074.5074 0 01.01.051c.001.0193.003.0386.003.058 0 .0192 0 .04-.003.0592-.001.0207-.005.0413-.008.062a.5985.5985 0 01-.0166.0648.329.329 0 01-.0207.0593.5156.5156 0 01-.0234.0537.2746.2746 0 01-.0275.0441.302.302 0 01-.0303.0372m2.3093.5209a.7935.7935 0 00-.0992.1047.919.919 0 00-.0868.1254 1.2392 1.2392 0 00-.073.1489 1.399 1.399 0 00-.062.1722 1.8166 1.8166 0 00-.0455.1805 1.5919 1.5919 0 00-.0248.1764c-.005.0593-.007.1172-.005.175.003.058.007.1158.0152.1723.01.0579.0207.1102.0344.1598a.7658.7658 0 00.0496.131.5813.5813 0 00.0675.106.4492.4492 0 00.0854.0773.3537.3537 0 00.0978.0469.2723.2723 0 00.1006.008.3128.3128 0 00.1047-.029.5575.5575 0 00.1089-.0674.808.808 0 00.1061-.1006 1.0108 1.0108 0 00.0923-.1282 1.2477 1.2477 0 00.0799-.1543 1.4968 1.4968 0 00.0661-.1792 1.7357 1.7357 0 00.0469-.1805 1.9515 1.9515 0 00.0262-.1764c.006-.0579.007-.1157.006-.1722a1.7842 1.7842 0 00-.0124-.171c-.001-.003-.001-.007-.003-.011 0-.004 0-.007-.001-.011 0-.004-.001-.008-.001-.011 0-.004-.001-.008-.001-.0123-.001-.001-.001-.003-.001-.006 0-.001 0-.003-.001-.004v-.007c-.001-.001-.001-.003-.001-.006a1.111 1.111 0 00-.04-.153c-.0166-.0468-.0344-.0882-.0565-.124a.4767.4767 0 00-.0717-.0965.415.415 0 00-.0896-.0661.297.297 0 00-.0992-.0358.2924.2924 0 00-.102.003.4396.4396 0 00-.1033.0386.6903.6903 0 00-.1048.0758m.1875 1.1672a.187.187 0 01-.0854.0414.1317.1317 0 01-.04-.003.1507.1507 0 01-.04-.0165c-.0124-.008-.0234-.0193-.0345-.0303a.1925.1925 0 01-.0276-.0427.3994.3994 0 01-.022-.0524.6855.6855 0 01-.0138-.0634.5525.5525 0 01-.005-.0703.8243.8243 0 01.001-.0703.4432.4432 0 01.01-.0717.617.617 0 01.0193-.0744.4664.4664 0 01.0248-.0689c.01-.022.0193-.0427.0303-.0606a.4802.4802 0 01.0358-.051.2931.2931 0 01.0413-.0413.2671.2671 0 01.0427-.0303.1206.1206 0 01.0413-.0138.0959.0959 0 01.0413 0 .1474.1474 0 01.0386.0152.1732.1732 0 01.0647.0702.2628.2628 0 01.022.051c.005.0193.011.0413.0153.0648.004.0234.005.0469.007.0703.001.0248 0 .0482-.001.073-.001.0248-.006.0496-.01.0744-.005.0248-.0124.0496-.0193.0758a.74.74 0 01-.0262.0703.5502.5502 0 01-.0317.0606.3873.3873 0 01-.0358.0524.4038.4038 0 01-.0427.0413m-1.493-1.9711a.8392.8392 0 00-.0853.098 1.2329 1.2329 0 00-.0745.1184 1.436 1.436 0 00-.0648.1378 2.0319 2.0319 0 00-.095.3238 2.1116 2.1116 0 00-.0234.1627 1.3987 1.3987 0 00-.005.1584c0 .0524.003.1034.01.1558.007.051.0152.0978.0262.142a.6264.6264 0 00.0414.1157.4015.4015 0 00.0565.0923.318.318 0 00.0703.066.2535.2535 0 00.0813.0373.1983.1983 0 00.0841.003.2677.2677 0 00.0897-.0317.5288.5288 0 00.0922-.0661.8578.8578 0 00.091-.0965.86.86 0 00.0785-.12 1.5208 1.5208 0 00.0704-.1419 2.129 2.129 0 00.0578-.1667 1.7867 1.7867 0 00.0662-.3239 1.697 1.697 0 00.008-.157 1.515 1.515 0 00-.01-.1516c0-.004-.001-.007-.001-.011 0-.003 0-.007-.001-.01 0-.004 0-.007-.001-.011 0-.003 0-.005-.001-.01v-.004c0-.003-.001-.004-.001-.005v-.004c0-.003-.001-.004-.001-.005a1.069 1.069 0 00-.0304-.1365.7597.7597 0 00-.0455-.1102.4018.4018 0 00-.0606-.0841.3588.3588 0 00-.073-.0565.2395.2395 0 00-.084-.0275.2274.2274 0 00-.0855.007.2742.2742 0 00-.0868.04.4727.4727 0 00-.091.073m.1434 1.0446a.1314.1314 0 01-.0372.0276.106.106 0 01-.0358.0152.1987.1987 0 01-.0345 0 .1222.1222 0 01-.033-.0138.1618.1618 0 01-.029-.0248.205.205 0 01-.022-.0358c-.007-.0138-.0124-.0303-.018-.047a.7688.7688 0 01-.011-.0578c-.001-.0207-.004-.0413-.004-.062 0-.0221 0-.0427.003-.0648.003-.022.005-.0441.01-.0648a.6886.6886 0 01.0166-.069c.007-.022.0138-.044.022-.0633.008-.0207.0179-.0386.0276-.0565a.3243.3243 0 01.0647-.0868c.0124-.0124.0248-.0207.0358-.029a.152.152 0 01.0358-.0151.0805.0805 0 01.0344-.001c.011.001.022.005.033.0124a.1082.1082 0 01.0304.0248c.008.01.0165.0207.0234.0345a.2919.2919 0 01.0179.0468c.006.0166.008.0358.011.0565a.4513.4513 0 01.005.0634.366.366 0 01-.003.066.3023.3023 0 01-.01.0676.6073.6073 0 01-.0165.0689.7934.7934 0 01-.0234.066.4567.4567 0 01-.0276.0552.2611.2611 0 01-.0317.0482.233.233 0 01-.0345.0386m.6302-3.7467a.8198.8198 0 00-.0895.1116 1.187 1.187 0 00-.0785.1282 1.4408 1.4408 0 00-.0675.1474c-.0207.051-.04.1061-.0565.164a2.3602 2.3602 0 00-.0413.1709 1.3976 1.3976 0 00-.0234.1626 1.1966 1.1966 0 00-.006.157c.001.051.006.1007.0124.1503.007.0496.0179.095.0289.135a.5161.5161 0 00.0455.1075.3373.3373 0 00.0606.0813c.022.0221.0482.04.0758.0524a.2503.2503 0 00.0868.022.275.275 0 00.091-.0124.3601.3601 0 00.0937-.0469.5723.5723 0 00.0992-.0813 1.0734 1.0734 0 00.095-.1102 1.132 1.132 0 00.0842-.131 1.5674 1.5674 0 00.0717-.153 1.485 1.485 0 00.0606-.1722 1.6711 1.6711 0 00.0427-.168 1.8733 1.8733 0 00.0248-.1627c.005-.0524.007-.1047.007-.1557a1.199 1.199 0 00-.011-.1475c0-.004-.001-.007-.001-.01-.001-.004-.001-.007-.001-.011-.001-.003-.001-.005-.001-.01-.001-.003-.001-.005-.001-.01-.001-.001-.001-.003-.001-.004s0-.003-.001-.006v-.004c0-.001 0-.003-.001-.004a.7405.7405 0 00-.0345-.1295.446.446 0 00-.0496-.0992.2954.2954 0 00-.0648-.0716.2408.2408 0 00-.0785-.0427.256.256 0 00-.1805.0083.5211.5211 0 00-.0937.0551.7787.7787 0 00-.0951.0882m.1626 1.0018a.756.756 0 01-.0386.0331.1337.1337 0 01-.0386.0193.0798.0798 0 01-.0358.007.1065.1065 0 01-.0358-.007.0832.0832 0 01-.0303-.0207.1376.1376 0 01-.0262-.0317.2406.2406 0 01-.018-.0427.3204.3204 0 01-.0123-.0537c-.003-.0207-.004-.04-.006-.0606 0-.0207 0-.0427.003-.0634a.3013.3013 0 01.01-.066.6886.6886 0 01.0165-.069.6864.6864 0 01.051-.1268.4198.4198 0 01.0317-.0524.6736.6736 0 01.0372-.0455.4035.4035 0 01.0386-.0344.1623.1623 0 01.0372-.0207.0874.0874 0 01.0372-.008.1137.1137 0 01.0675.025c.01.008.0179.0192.0262.0302a.2395.2395 0 01.0193.0427.324.324 0 01.0124.0538c.004.0207.005.0413.007.062 0 .022 0 .0427-.003.0661a.4126.4126 0 01-.01.0675.4648.4648 0 01-.018.0703.8294.8294 0 01-.0233.0675.3846.3846 0 01-.029.0606.4707.4707 0 01-.033.0524.293.293 0 01-.0372.0455" fill="#70bd42"/><path d="M115.196 122.2086a.6853.6853 0 00-.1434-.0166.5374.5374 0 00-.1281.0138.442.442 0 00-.1116.0469.4657.4657 0 00-.0966.0785.5033.5033 0 00-.073.1061.5276.5276 0 00-.044.124.6608.6608 0 00-.0139.1434c0 .051.006.106.0166.164a1.2038 1.2038 0 00.1158.3321c.029.0536.062.106.0979.1557.0371.051.0771.1006.1226.1488.0469.0482.0923.091.1392.1295.0468.0386.095.0717.1447.1006a.8446.8446 0 00.1474.0703.7704.7704 0 00.1544.0413c.051.01.0992.0124.1447.01a.4141.4141 0 00.1267-.0234.3746.3746 0 00.1075-.0537.5396.5396 0 00.091-.0868.569.569 0 00.062-.1033.5569.5569 0 00.0372-.1172.786.786 0 00.011-.1309.8234.8234 0 00-.0152-.1447c0-.004-.001-.007-.001-.011 0-.004-.001-.007-.003-.011 0-.004-.001-.007-.001-.01-.001-.004-.001-.008-.003-.011 0-.001 0-.004-.001-.005v-.005c-.001-.001-.001-.003-.001-.004 0-.003-.001-.004-.001-.005a1.2144 1.2144 0 00-.0482-.157 1.3126 1.3126 0 00-.0689-.1489 1.3275 1.3275 0 00-.0923-.142 1.5014 1.5014 0 00-.2453-.2618 1.2344 1.2344 0 00-.135-.0978 1.136 1.136 0 00-.142-.0717.923.923 0 00-.1488-.0455m.2302 1.1355a.5397.5397 0 01-.0606-.0165.5383.5383 0 01-.0593-.0289.6992.6992 0 01-.0565-.04.6256.6256 0 01-.0551-.051.6376.6376 0 01-.0482-.0593.4065.4065 0 01-.0386-.0606.6463.6463 0 01-.029-.0648.3945.3945 0 01-.0178-.0675.3688.3688 0 01-.007-.0634.2689.2689 0 01.004-.0579.2801.2801 0 01.0165-.0496.2717.2717 0 01.0289-.0427.2233.2233 0 01.0386-.033.1668.1668 0 01.044-.0194.2141.2141 0 01.051-.007.197.197 0 01.058.007c.0207.003.04.01.0606.0165a.5204.5204 0 01.0579.029.455.455 0 01.055.04.6302.6302 0 01.0539.051.4436.4436 0 01.0468.0564.4065.4065 0 01.0386.0606.3566.3566 0 01.0276.062.383.383 0 01.0193.0661c.004.022.007.0427.008.0634 0 .0207-.001.04-.004.058a.2035.2035 0 01-.0152.0495.2146.2146 0 01-.0276.0441.1687.1687 0 01-.0372.0331.1137.1137 0 01-.0441.0207.16.16 0 01-.051.008.2347.2347 0 01-.058-.004m-.9036-4.5215a.9279.9279 0 00-.1365-.0289.4488.4488 0 00-.1212-.001.3831.3831 0 00-.1075.0275.378.378 0 00-.0923.0565.3478.3478 0 00-.0703.08.3155.3155 0 00-.0441.1005.4422.4422 0 00-.0152.1185.6683.6683 0 00.0124.1392.9651.9651 0 00.1048.2908c.0262.0482.055.095.0896.142.033.0454.0717.0922.1144.1377.0427.0455.0854.0854.1281.1227.0441.0372.0896.0717.135.1006.047.0289.0924.0538.1406.0744a.804.804 0 00.1433.051.6807.6807 0 00.1378.0248.4769.4769 0 00.1213-.006.3908.3908 0 00.1047-.0345.3144.3144 0 00.0868-.062.3302.3302 0 00.0606-.08.3711.3711 0 00.0372-.0936.4766.4766 0 00.0124-.1089.6104.6104 0 00-.011-.124c0-.003 0-.005-.001-.01 0-.003-.001-.005-.001-.008 0-.004-.001-.007-.001-.01-.001-.003-.001-.006-.003-.008v-.005c0-.001-.001-.003-.001-.004s0-.003-.001-.004v-.004a1.2258 1.2258 0 00-.0427-.1378 1.1674 1.1674 0 00-.0648-.1323 1.0327 1.0327 0 00-.084-.1296 1.7466 1.7466 0 00-.1062-.1281 1.4133 1.4133 0 00-.1226-.1185 1.2113 1.2113 0 00-.1282-.0978 1.2699 1.2699 0 00-.1336-.0744 1.0658 1.0658 0 00-.1392-.0551m.1984.9798a.406.406 0 01-.0579-.0207c-.0179-.01-.0372-.0193-.055-.0317a.4672.4672 0 01-.0525-.0386.885.885 0 01-.0524-.0496.5082.5082 0 01-.044-.0537.3478.3478 0 01-.0359-.0565.3009.3009 0 01-.0262-.0565.4337.4337 0 01-.0165-.058c-.003-.0192-.006-.0371-.006-.055a.224.224 0 01.006-.047.1852.1852 0 01.0165-.04.1602.1602 0 01.0647-.0564c.0138-.005.0276-.01.0427-.0124a.3874.3874 0 01.0482 0c.018.003.0358.005.0565.0124a.5592.5592 0 01.0565.0207c.018.008.0358.0193.0537.0303a.3516.3516 0 01.0524.04.5423.5423 0 01.0496.0482.3878.3878 0 01.0441.0524.4632.4632 0 01.0358.055.3584.3584 0 01.0248.0552.3642.3642 0 01.0165.0565.2846.2846 0 01.007.055.2297.2297 0 01-.004.047.1253.1253 0 01-.0166.0413.1223.1223 0 01-.0262.033c-.011.011-.0234.0179-.0358.0248a.163.163 0 01-.0413.0138c-.0152.001-.0317.003-.0496.001a.2551.2551 0 01-.055-.011m3.4517 3.0439a.6556.6556 0 00-.12-.0124.3691.3691 0 00-.1033.0152.3005.3005 0 00-.0882.047.3252.3252 0 00-.0744.0757.4855.4855 0 00-.0524.0992.5105.5105 0 00-.0262.1158.7455.7455 0 000 .1336.9068.9068 0 00.0262.1516c.0138.0537.0303.1061.0496.1571.0207.051.0441.1006.0703.1502a1.35 1.35 0 00.0923.142 1.504 1.504 0 00.113.1364c.04.0427.0813.0827.1227.1171a1.041 1.041 0 00.1267.091.7417.7417 0 00.1282.0634.5928.5928 0 00.1282.0358c.0427.007.0827.01.1198.007a.362.362 0 00.1034-.0234.3024.3024 0 00.0854-.0524.401.401 0 00.0675-.0827.4693.4693 0 00.0441-.0965.465.465 0 00.0207-.1088.6281.6281 0 000-.1227.9998.9998 0 00-.022-.135c-.001-.003-.003-.007-.003-.01-.001-.003-.003-.007-.003-.01-.001-.004-.001-.007-.003-.01 0-.004-.001-.007-.003-.01v-.006c-.001-.001-.001-.003-.001-.004-.001-.001-.001-.004-.001-.006-.001-.001-.001-.003-.001-.004a1.2973 1.2973 0 00-.0524-.1447 1.2821 1.2821 0 00-.0675-.1378 1.3602 1.3602 0 00-.0868-.1323 1.4354 1.4354 0 00-.1047-.1254 1.2917 1.2917 0 00-.1172-.113 1.1247 1.1247 0 00-.1199-.0896.9431.9431 0 00-.1226-.0634.8378.8378 0 00-.1254-.04m.2756 1.0528a.362.362 0 01-.0524-.0138.4566.4566 0 01-.051-.0262c-.0166-.011-.033-.0234-.0496-.0358-.0165-.0138-.0317-.0303-.0482-.0468a.5082.5082 0 01-.044-.0537.4913.4913 0 01-.0373-.0565.4752.4752 0 01-.0276-.0592.601.601 0 01-.0207-.062c-.005-.0207-.008-.0413-.011-.0593a.4803.4803 0 010-.0537c.001-.0166.006-.0317.01-.0455a.17.17 0 01.0207-.0413.1162.1162 0 01.029-.0303.1277.1277 0 01.0343-.0193.1516.1516 0 01.0427-.008c.0138 0 .0303.001.0482.006a.2369.2369 0 01.051.0152.297.297 0 01.0496.0262.31.31 0 01.0482.0358.7193.7193 0 01.0482.0455.793.793 0 01.0441.0524c.0124.0179.0248.0358.0345.0551a.5575.5575 0 01.029.0579c.008.0193.0137.04.0206.0606.004.0207.008.04.011.0592.001.0193.003.0372.001.0538a.1483.1483 0 01-.01.0468.1373.1373 0 01-.0193.0413c-.008.0124-.0179.0221-.0276.0317a.1267.1267 0 01-.0345.0193.17.17 0 01-.0413.01.1607.1607 0 01-.0482-.004m-1.0606-4.2052a.5245.5245 0 00-.1144-.0233.3746.3746 0 00-.1006.001.3152.3152 0 00-.0854.0289.2774.2774 0 00-.0717.0565.2941.2941 0 00-.0524.0772.3029.3029 0 00-.0276.0965.4535.4535 0 00-.004.1116.9781.9781 0 00.022.1309c.011.0455.0262.091.0441.1378.018.044.04.0896.0648.1337a1.423 1.423 0 00.0854.1309 1.409 1.409 0 00.1047.1254c.0372.0413.0772.0799.1158.113a.9858.9858 0 00.1185.0896.7041.7041 0 00.1213.0675.7008.7008 0 00.1226.0455.7395.7395 0 00.1158.0193.3933.3933 0 00.0992-.008.2503.2503 0 00.0827-.0358.2773.2773 0 00.0675-.0606.3314.3314 0 00.044-.0772.3556.3556 0 00.0235-.0896.4985.4985 0 00.003-.1034.8653.8653 0 00-.0193-.1157c0-.003-.001-.006-.001-.008-.001-.003-.001-.005-.003-.01 0-.003-.001-.005-.001-.008-.001-.003-.001-.005-.003-.008 0-.001 0-.003-.001-.004 0-.001 0-.003-.001-.004v-.004c-.001-.001-.001-.003-.001-.004a.9616.9616 0 00-.047-.1282 1.2953 1.2953 0 00-.062-.124 2.0217 2.0217 0 00-.0798-.1199 1.8686 1.8686 0 00-.098-.1171 1.6111 1.6111 0 00-.1102-.1089 1.1035 1.1035 0 00-.1143-.0882 1.009 1.009 0 00-.1158-.0675.8739.8739 0 00-.1199-.0469m.2412.9178c-.0165-.006-.0331-.011-.0496-.0193a.3305.3305 0 01-.0482-.0262 1.0428 1.0428 0 01-.047-.0358c-.0151-.0138-.0302-.029-.0454-.0441a.6652.6652 0 01-.0413-.0496 1.2085 1.2085 0 01-.0345-.0524.3942.3942 0 01-.0248-.0524.271.271 0 01-.018-.0551.371.371 0 01-.01-.051.2259.2259 0 01.001-.0455.1085.1085 0 01.01-.0372.112.112 0 01.0208-.0317.0866.0866 0 01.0289-.0234.138.138 0 01.0345-.0124.106.106 0 01.04-.001.2877.2877 0 01.0455.008.3075.3075 0 01.0496.0193.2819.2819 0 01.0468.0276c.0152.01.0303.022.0455.0358a.4546.4546 0 01.0455.044.4386.4386 0 01.04.0483.5413.5413 0 01.033.0496.3125.3125 0 01.0263.0524c.007.0179.0138.0345.0179.0537a.3369.3369 0 01.01.051.3447.3447 0 010 .0455.103.103 0 01-.01.0386.0914.0914 0 01-.0193.0317.134.134 0 01-.0276.0248c-.01.005-.022.01-.0344.0124-.011.003-.0248.003-.04.003a.2877.2877 0 01-.0455-.008" fill="#007dc5"/><path d="M112.9043 126.085a2.8716 2.8716 0 00-.1626-.01c-.0551 0-.1103.001-.1682.005a2.752 2.752 0 00-.1736.018 5.2943 5.2943 0 00-.1805.033 3.4208 3.4208 0 00-.1709.0427 1.5435 1.5435 0 00-.1488.0524 1.0785 1.0785 0 00-.1268.058.747.747 0 00-.1034.066.5305.5305 0 00-.0744.069c-.0179.022-.0317.0426-.0386.0647a.119.119 0 00-.003.062c.005.0193.0165.0386.0317.058a.3028.3028 0 00.0634.051c.0248.0151.0551.0275.0896.04a.915.915 0 00.1144.0288c.0427.007.0896.0138.142.0165.0524.004.1033.007.157.007.0525 0 .1048-.003.16-.006.0537-.004.1088-.011.1639-.0193a2.5723 2.5723 0 00.1695-.0303 2.058 2.058 0 00.153-.0372 2.225 2.225 0 00.135-.044c.0427-.0153.0813-.0332.1185-.0497a1.1609 1.1609 0 00.102-.0579c.003-.001.004-.003.007-.004a.0215.0215 0 01.007-.004.0218.0218 0 01.005-.004.0311.0311 0 01.006-.004c.001 0 .003-.001.004-.003 0 0 .001 0 .003-.001 0 0 .001-.001.003-.001 0-.001.001-.001.003-.003a.4896.4896 0 00.073-.0634.2573.2573 0 00.0427-.0606.1386.1386 0 00.011-.0606.1658.1658 0 00-.0757-.1116.3316.3316 0 00-.0827-.044.7013.7013 0 00-.113-.0318 1.1783 1.1783 0 00-.142-.022m-.6421.4657a.4638.4638 0 01-.0565-.007.6756.6756 0 01-.0455-.0124c-.0138-.005-.0248-.011-.0358-.0165-.01-.007-.018-.0124-.0234-.0207a.0434.0434 0 01-.0094-.0482.085.085 0 01.0165-.0262.1263.1263 0 01.0303-.0262.2199.2199 0 01.0413-.0262.467.467 0 01.1089-.0427.6495.6495 0 01.0675-.0179c.0234-.004.0482-.008.0703-.0124.0234-.003.0468-.005.0689-.007.0234-.001.0455-.003.0675-.003.022 0 .0427.001.0634.004.0207.001.04.004.0579.008a.2454.2454 0 01.0455.0124c.0124.004.0248.01.0344.0165.01.007.0165.0138.022.0207.006.008.008.0165.01.0248.001.008 0 .0165-.003.0248a.1046.1046 0 01-.018.0248.129.129 0 01-.0302.0262.3934.3934 0 01-.0427.0262c-.0152.007-.0317.0152-.0496.022a.538.538 0 01-.058.0193c-.0206.005-.0426.011-.0661.0165a.7017.7017 0 01-.069.0124c-.0233.004-.0454.005-.0674.007-.022.003-.0441.003-.0661.003a.6726.6726 0 01-.0634-.003m3.0942-2.2381a1.8391 1.8391 0 00-.3528-.0166c-.0634.003-.1268.01-.193.0179-.0647.01-.1322.022-.2011.0372a2.3892 2.3892 0 00-.1957.051 1.4253 1.4253 0 00-.1736.062 1.2523 1.2523 0 00-.1489.0716 1.1424 1.1424 0 00-.1281.0827.6768.6768 0 00-.0965.0868c-.0248.0275-.0441.055-.0551.0813-.0124.0276-.0193.0537-.018.0799 0 .0262.007.0524.0208.0772a.213.213 0 00.055.0675.3951.3951 0 00.0855.055.7035.7035 0 00.1185.04c.0427.011.0923.0208.146.0276a1.639 1.639 0 00.1668.0138c.0565.001.113 0 .1723-.003a2.205 2.205 0 00.1805-.0193c.062-.008.124-.0193.1888-.0331a2.5883 2.5883 0 00.1722-.0441 2.0429 2.0429 0 00.1557-.0524 1.4223 1.4223 0 00.1392-.0606 1.7802 1.7802 0 00.124-.0703c.001-.001.004-.003.007-.006.003-.001.005-.003.008-.004.003-.003.006-.004.008-.006.001-.003.005-.004.007-.005.001 0 .003-.001.004-.003.001 0 .003-.001.003-.003.001 0 .003-.001.004-.001.001-.001.003-.003.004-.003a.831.831 0 00.0938-.08.384.384 0 00.062-.0785.2058.2058 0 00.0262-.0772.179.179 0 00-.008-.0758.1846.1846 0 00-.0427-.073.3579.3579 0 00-.0772-.0593.6694.6694 0 00-.113-.0455c-.0441-.0138-.0937-.0234-.1489-.0331m-.8034.5843a.3836.3836 0 01-.0593-.0124.2208.2208 0 01-.0468-.0165c-.0124-.007-.0248-.0138-.033-.022a.071.071 0 01-.0208-.0276.0728.0728 0 01-.007-.0317c0-.01.003-.0207.008-.0317a.1136.1136 0 01.0234-.0331.5076.5076 0 01.0386-.0345.524.524 0 01.1103-.0593c.022-.008.0441-.0165.069-.0234a.608.608 0 01.0771-.0207.98.98 0 01.0786-.0138.683.683 0 01.1475-.008.512.512 0 01.069.007.386.386 0 01.0592.0124c.018.005.033.011.0455.0179a.104.104 0 01.0331.0234.0867.0867 0 01.018.0276c.004.011.007.0207.005.0317a.0671.0671 0 01-.011.0317.1417.1417 0 01-.0235.0317c-.011.011-.0248.022-.04.0345a.4676.4676 0 01-.0524.0303.4847.4847 0 01-.0579.0275c-.022.008-.044.0165-.0675.0234a.9137.9137 0 01-.0744.0193c-.0262.005-.0524.01-.0772.0138a.6238.6238 0 01-.0744.007c-.0234.001-.0469.003-.0703.001-.0234 0-.0455-.003-.0675-.005m1.4727 1.5028a1.51 1.51 0 00-.1378-.007 1.8135 1.8135 0 00-.146.004 2.4641 2.4641 0 00-.3225.0482 2.2867 2.2867 0 00-.1612.0386 2.4476 2.4476 0 00-.142.047 1.1726 1.1726 0 00-.1254.0536.8208.8208 0 00-.1089.0592c-.0316.0207-.0605.04-.0826.0606a.273.273 0 00-.051.058.1333.1333 0 00-.0194.055.0947.0947 0 00.0124.0524.1598.1598 0 00.04.0455.2568.2568 0 00.0676.0358.5537.5537 0 00.0922.0248c.0345.007.0744.0124.1186.0165.0427.003.0882.004.1336.004a1.7028 1.7028 0 00.2908-.0229 2.5159 2.5159 0 00.299-.062 2.385 2.385 0 00.1296-.04 2.5893 2.5893 0 00.1157-.0456 1.0467 1.0467 0 00.1048-.0524c.003-.001.004-.003.007-.004s.004-.001.007-.003c.001-.001.004-.003.005-.004.003-.001.005-.003.007-.004.001 0 .003-.001.004-.001 0-.001.001-.001.003-.001l.003-.003a.01.01 0 00.003-.001.7425.7425 0 00.0813-.0565c.022-.0193.04-.0372.0524-.0565a.1204.1204 0 00.0248-.0524.0932.0932 0 00-.003-.0524.1044.1044 0 00-.0317-.0482.216.216 0 00-.0606-.0386.5877.5877 0 00-.091-.0289 1.0575 1.0575 0 00-.1185-.0179m-.682.4203a.312.312 0 01-.084-.018.118.118 0 01-.0263-.0152.0422.0422 0 01-.0152-.0179c-.004-.007-.004-.0138-.004-.0207a.0395.0395 0 01.01-.022.0657.0657 0 01.0207-.0234c.008-.008.0207-.0165.0331-.0248a.7621.7621 0 01.0441-.0234.8497.8497 0 01.0496-.0207c.0165-.005.0358-.0124.0565-.0179a.6529.6529 0 01.062-.0152c.0234-.006.0441-.008.0661-.0124.0207-.003.0413-.004.062-.007.0193-.001.0386-.001.058-.001a.331.331 0 01.055.003.3056.3056 0 01.0482.007.2128.2128 0 01.0358.011c.011.004.0193.008.0248.0152a.0414.0414 0 01.0138.018.035.035 0 01.003.022.0427.0427 0 01-.01.022.107.107 0 01-.022.0234c-.01.007-.0207.0152-.033.0234a.7621.7621 0 01-.0442.0234.3974.3974 0 01-.0496.0193c-.0165.007-.0358.0124-.055.018a.5681.5681 0 01-.062.0151c-.022.004-.0428.008-.0635.011-.0207.003-.0413.005-.0606.007-.0193.003-.0386.003-.0579.003-.0179 0-.0372 0-.055-.001m-1.2837-1.5717a1.6097 1.6097 0 00-.1667-.0124 2.544 2.544 0 00-.1736.003c-.0606.004-.1213.01-.1833.0194a2.3893 2.3893 0 00-.1902.0344 2.0982 2.0982 0 00-.1833.0468 1.9858 1.9858 0 00-.1598.0552 1.8404 1.8404 0 00-.1378.0647 1.0226 1.0226 0 00-.1144.0745.5178.5178 0 00-.084.0771.2376.2376 0 00-.047.0718c-.008.0247-.0124.0481-.01.0702a.1646.1646 0 00.0276.0676.2455.2455 0 00.0606.0578c.0234.018.0538.0332.0868.047a.9181.9181 0 00.1171.0343c.0428.008.091.0166.1447.022.0524.005.1061.008.1613.008.0537.001.1088 0 .1653-.004.0565-.004.1144-.01.1723-.0178a2.0954 2.0954 0 00.1777-.0332 1.631 1.631 0 00.1627-.04 2.5466 2.5466 0 00.1447-.0469 1.389 1.389 0 00.1295-.0564 1.216 1.216 0 00.1102-.062c.003-.001.006-.004.008-.005.003-.001.004-.003.007-.004s.004-.003.007-.004c.001-.001.004-.004.007-.005 0 0 .001-.001.003-.001l.003-.003c.001-.001.003-.001.004-.003.001 0 .001-.001.003-.001a.7757.7757 0 00.0841-.0718.2458.2458 0 00.0496-.0689.1424.1424 0 00.0027-.1336.195.195 0 00-.0496-.0634.3182.3182 0 00-.0799-.0496.5725.5725 0 00-.113-.0386 1.1905 1.1905 0 00-.146-.0275m-.7152.5196a.3398.3398 0 01-.058-.008c-.0178-.004-.033-.01-.0467-.0152a.1075.1075 0 01-.0345-.0193.0736.0736 0 01-.0234-.0234.0507.0507 0 01-.004-.0551c.004-.01.01-.018.0193-.029a.3992.3992 0 01.0345-.0302.3253.3253 0 01.0455-.0276c.0165-.01.0358-.018.055-.0262.0194-.007.04-.0152.0635-.0207a.723.723 0 01.0717-.0193.8827.8827 0 01.0744-.0138c.0248-.003.0496-.005.073-.007.0234-.001.0469-.001.0689-.001.022 0 .044.001.066.004.0208.003.04.007.058.011a.1608.1608 0 01.0455.0152.14.14 0 01.0344.0193.0977.0977 0 01.0207.0248c.005.008.008.0179.008.0276 0 .008-.003.0179-.007.0275-.006.01-.011.0193-.0207.0289-.01.008-.0207.0193-.0358.0289a.5265.5265 0 01-.0455.0289.5777.5777 0 01-.0551.0234.5762.5762 0 01-.062.022.8274.8274 0 01-.0703.0179c-.0248.004-.0482.01-.0717.0124-.0248.003-.0482.006-.0703.007-.0234.003-.047.003-.0675.003a.6934.6934 0 01-.0661-.006m3.9012-.1202a2.0763 2.0763 0 00-.1406-.01 1.586 1.586 0 00-.153.004 1.7277 1.7277 0 00-.1626.0166 2.7097 2.7097 0 00-.3445.0744 2.027 2.027 0 00-.153.0496 1.3864 1.3864 0 00-.135.0592 1.341 1.341 0 00-.1185.0648.8223.8223 0 00-.0937.0689.36.36 0 00-.0593.0648c-.0138.0207-.0234.0413-.0262.062a.1203.1203 0 00.005.0593.1536.1536 0 00.0358.051.2927.2927 0 00.0648.0414.4594.4594 0 00.0923.0289.8732.8732 0 00.1199.0193 1.4318 1.4318 0 00.2825.002c.0496-.004.102-.01.1543-.0165a2.4167 2.4167 0 00.164-.0303 2.1855 2.1855 0 00.1516-.0372 1.8311 1.8311 0 00.1378-.0427 1.5389 1.5389 0 00.1268-.0496c.04-.018.0772-.0372.113-.0565.003-.001.005-.003.007-.004.003-.001.005-.003.008-.004s.004-.003.007-.004a.0215.0215 0 01.007-.004c.001-.001.003-.001.003-.001.001-.001.003-.003.004-.003.001-.001.003-.001.003-.003.001 0 .003-.001.004-.001a.898.898 0 00.0896-.0634.4326.4326 0 00.062-.0606.2408.2408 0 00.033-.0606.1203.1203 0 00.003-.0593.1086.1086 0 00-.0275-.0551c-.0124-.0165-.0317-.0303-.0565-.0441a.408.408 0 00-.0882-.0331.761.761 0 00-.1199-.0234m-.7538.4643a.2332.2332 0 01-.0482-.008.1315.1315 0 01-.0358-.0124.075.075 0 01-.0262-.0165.0441.0441 0 01-.0138-.0207.0375.0375 0 01-.001-.0234.0699.0699 0 01.011-.0248c.007-.008.0152-.0179.0248-.0262.011-.01.0234-.0179.0386-.0276a.898.898 0 01.047-.0248.5997.5997 0 01.1143-.0427c.0206-.006.0426-.011.066-.0165.0248-.005.047-.01.069-.0123.022-.003.044-.005.0647-.007.0207-.001.0413-.001.0606-.001.0193 0 .0386.001.0565.004a.207.207 0 01.047.008.1625.1625 0 01.0371.0123.084.084 0 01.0234.018.056.056 0 01.0124.022.0625.0625 0 01-.001.0233.0552.0552 0 01-.0124.0248c-.005.008-.0152.0165-.0248.0248a.2708.2708 0 01-.0386.0275.8279.8279 0 01-.0469.0248.5497.5497 0 01-.0537.0221.6974.6974 0 01-.0593.0193c-.0207.005-.0427.011-.066.0152-.0222.005-.0442.01-.0663.0124-.022.003-.0427.006-.0634.007-.0193.001-.04.003-.0593.003-.0193-.001-.0372-.001-.055-.004m2.1077-1.2943a1.5106 1.5106 0 00-.1432-.0138 2.7657 2.7657 0 00-.1571.001c-.0551.004-.1117.01-.171.0179a2.3214 2.3214 0 00-.1832.033 2.8893 2.8893 0 00-.1819.0456 2.5135 2.5135 0 00-.164.055 1.8046 1.8046 0 00-.1474.0649 1.2057 1.2057 0 00-.131.073.8362.8362 0 00-.1033.0744c-.0289.0248-.0537.0496-.0703.073-.0179.0248-.0303.0482-.0358.0703a.1195.1195 0 00-.001.0675.1387.1387 0 00.0303.0593.2027.2027 0 00.062.0468c.0248.0138.0551.0248.091.0358a.7822.7822 0 00.1199.022c.0455.007.0923.01.1406.011.0482.001.0992 0 .1502-.003.0524-.004.106-.01.1612-.0178.0551-.008.113-.018.1722-.0303a2.4355 2.4355 0 00.1599-.04 2.0688 2.0688 0 00.1488-.047 1.705 1.705 0 00.135-.055c.0442-.0193.0855-.04.1241-.062.003-.001.006-.003.01-.004.003-.001.004-.004.007-.006.003-.001.005-.003.008-.004s.006-.003.008-.004c.001-.001.003-.001.004-.003.001 0 .003-.001.003-.003.001 0 .003-.001.004-.001.001-.001.003-.001.004-.003a.9026.9026 0 00.1006-.0703.3855.3855 0 00.0717-.069.2603.2603 0 00.0427-.0674.1661.1661 0 00.011-.0675.1231.1231 0 00-.0193-.062.1748.1748 0 00-.0537-.051.3657.3657 0 00-.0868-.04.7657.7657 0 00-.1199-.0275m-.8378.5154a.1698.1698 0 01-.0482-.01.0986.0986 0 01-.0358-.0152.0648.0648 0 01-.0248-.018.053.053 0 01-.011-.0247.0773.0773 0 01.001-.0262.0917.0917 0 01.0152-.029.2318.2318 0 01.0289-.0288.3368.3368 0 01.0427-.029.3764.3764 0 01.0524-.0288.3353.3353 0 01.0579-.0248 1.0467 1.0467 0 01.0648-.0221c.022-.007.0468-.0124.0716-.018.0248-.005.0482-.01.0717-.0123.0234-.004.0455-.005.0675-.007.022-.001.0427-.001.062-.001.0207.001.04.003.0579.006s.0345.005.0482.01a.166.166 0 01.0358.0165c.01.006.0166.0124.022.0193.006.008.008.0166.01.0248 0 .01 0 .0179-.004.0276a.0705.0705 0 01-.0165.0276c-.007.01-.018.0193-.029.0289a.3368.3368 0 01-.0426.0289c-.0166.01-.0345.0193-.0524.0289a.842.842 0 01-.058.0234.528.528 0 01-.0633.0207.9753.9753 0 01-.0703.0179c-.0234.004-.047.01-.0703.0124-.0221.003-.0441.006-.0648.007-.022.001-.0413.001-.0606.001a.909.909 0 01-.058-.005" fill="#ee3023"/><g transform="translate(4.753 3.0551) scale(.35278)" clip-path="url(#q)"><use mask="url(#r)" transform="translate(255 354)" xlink:href="#s" width="100%" height="100%"/></g><g transform="translate(4.753 3.0551) scale(.35278)" clip-path="url(#t)"><use mask="url(#u)" transform="translate(254 337)" xlink:href="#v" width="100%" height="100%"/></g><use mask="url(#w)" transform="translate(99.2975 121.9413) scale(.35278)" xlink:href="#x" width="100%" height="100%"/><use mask="url(#y)" transform="translate(104.5892 121.9413) scale(.35278)" xlink:href="#z" width="100%" height="100%"/><g transform="translate(4.753 3.0551) scale(.35278)" clip-path="url(#A)"><use mask="url(#B)" transform="translate(254 327)" xlink:href="#C" width="100%" height="100%"/></g><g transform="translate(4.753 3.0551) scale(.35278)" clip-path="url(#D)"><use mask="url(#E)" transform="translate(268 327)" xlink:href="#F" width="100%" height="100%"/></g><g transform="translate(4.753 3.0551) scale(.35278)" clip-path="url(#G)"><use mask="url(#H)" transform="translate(283 327)" xlink:href="#I" width="100%" height="100%"/></g><use y="313.7072" x="106.5556" xlink:href="#bb" width="100%" height="100%" transform="translate(4.753 3.0551) scale(.35278)"/><use y="416.8869" x="180.0765" xlink:href="#aF" width="100%" height="100%" transform="translate(4.753 3.0551) scale(.35278)"/><use y="427.0869" x="188.8333" xlink:href="#aF" width="100%" height="100%" transform="translate(4.753 3.0551) scale(.35278)"/><use y="746.0993" x="42.1197" xlink:href="#aF" width="100%" height="100%" transform="translate(4.753 3.0551) scale(.35278)"/><use y="746.0993" x="86.7181" xlink:href="#aF" width="100%" height="100%" transform="translate(4.753 3.0551) scale(.35278)"/><use y="746.0993" x="100.5405" xlink:href="#aF" width="100%" height="100%" transform="translate(4.753 3.0551) scale(.35278)"/><use y="746.0993" x="224.2244" xlink:href="#aF" width="100%" height="100%" transform="translate(4.753 3.0551) scale(.35278)"/><use y="756.2993" x="413.3146" xlink:href="#aF" width="100%" height="100%" transform="translate(4.753 3.0551) scale(.35278)"/><use y="384.208" x="296.8503" xlink:href="#aE" width="100%" height="100%" transform="translate(4.753 3.0551) scale(.35278)" fill="#0073c7"/><use y="384.208" x="315.7107" xlink:href="#aE" width="100%" height="100%" transform="translate(4.753 3.0551) scale(.35278)" fill="#0073c7"/></g></svg>