<?xml version="1.0" encoding="UTF-8" standalone="no"?><!-- Generator: Gravit.io --><svg xmlns="http://www.w3.org/2000/svg" xmlns:xlink="http://www.w3.org/1999/xlink" style="isolation:isolate" viewBox="0 0 563 182" width="563pt" height="182pt"><defs><clipPath id="_clipPath_gonZF1E8cAvIs5FavBPWdyB8D8jHuTak"><rect width="563" height="182"/></clipPath></defs><g clip-path="url(#_clipPath_gonZF1E8cAvIs5FavBPWdyB8D8jHuTak)"><path d=" M 206.495 133.445 C 221.665 133.445 243.498 132.523 243.498 109.973 C 243.498 95.828 230.685 92.24 224.74 92.24 L 224.74 92.035 C 228.02 92.035 237.86 88.96 237.86 78.71 C 237.86 62.823 221.87 59.645 205.573 59.645 L 198.91 59.645 L 184.97 59.645 L 184.663 60.158 L 184.663 133.445 L 206.495 133.445 Z  M 203.215 98.493 C 215.72 98.493 228.943 99.108 228.943 109.87 C 228.943 121.248 216.028 121.248 205.163 121.248 L 198.91 121.248 L 198.91 98.493 L 203.215 98.493 Z  M 198.91 71.843 C 200.243 71.843 199.423 71.843 200.653 71.843 C 214.798 71.945 223.408 72.355 223.408 79.53 C 223.408 86.705 213.773 87.32 203.933 87.32 L 200.55 87.32 L 198.91 87.32 L 198.91 71.843 Z  M 265.638 87.32 L 252.21 87.32 L 251.903 87.833 L 251.903 133.445 L 265.638 133.445 L 265.638 87.32 Z  M 251.903 77.173 L 265.638 77.173 L 265.638 64.36 L 251.903 64.36 L 251.903 77.173 Z  M 279.988 118.685 C 279.988 131.805 283.268 134.368 292.698 133.65 L 305.818 132.625 L 305.818 122.17 L 305.203 121.76 L 300.898 122.273 C 294.44 123.093 293.723 121.145 293.723 110.28 L 293.723 96.648 L 304.895 96.648 L 306.228 87.833 L 305.92 87.32 L 293.723 87.32 L 293.723 74.508 L 279.988 74.508 L 279.988 87.32 L 272.3 87.32 L 272.3 96.648 L 279.988 96.648 L 279.988 118.685 Z  M 361.783 133.445 L 361.783 108.743 C 361.783 90.6 353.48 86.09 343.845 86.09 C 336.158 86.09 330.828 89.985 328.675 93.265 L 328.573 93.265 L 328.573 87.32 L 315.145 87.32 L 314.838 87.833 L 314.838 133.445 L 328.573 133.445 L 328.573 117.66 C 328.573 100.338 335.748 95.828 340.565 95.828 C 345.485 95.828 348.048 99.005 348.048 108.743 L 348.048 133.445 L 361.783 133.445 Z  M 371.11 110.383 C 371.11 125.04 381.463 134.675 395.198 134.675 C 408.933 134.675 419.285 125.04 419.285 110.383 C 419.285 95.725 408.933 86.09 395.198 86.09 C 381.463 86.09 371.11 95.725 371.11 110.383 Z  M 385.05 110.383 C 385.05 102.388 388.433 96.75 395.198 96.75 C 401.963 96.75 405.345 102.388 405.345 110.383 C 405.345 118.378 401.963 124.015 395.198 124.015 C 388.433 124.015 385.05 118.378 385.05 110.383 Z  M 446.038 118.378 L 445.833 118.378 L 435.685 87.32 L 421.848 87.32 L 421.54 87.833 L 439.888 133.445 L 451.983 133.445 L 470.33 87.833 L 470.023 87.32 L 456.185 87.32 L 446.038 118.378 Z  M 511.945 119.813 L 511.228 119.813 C 504.565 123.708 499.338 124.015 497.083 124.015 C 490.01 124.015 487.448 118.685 486.833 114.073 L 517.48 114.073 L 518.3 112.945 C 519.735 102.49 515.43 86.09 497.39 86.09 C 482.425 86.09 472.585 95.93 472.585 110.383 C 472.585 123.605 481.503 134.675 497.698 134.675 C 506.615 134.675 513.278 129.96 516.353 127.5 L 511.945 119.813 Z  M 497.185 96.75 C 502.618 96.75 505.488 101.465 505.488 104.745 L 487.243 104.745 C 488.165 100.338 491.138 96.75 497.185 96.75 Z  M 541.363 59.645 L 527.935 59.645 L 527.628 60.158 L 527.628 133.445 L 541.363 133.445 L 541.363 59.645 Z " fill="rgb(20,112,169)"/><g><path d=" M 90.202 31.405 C 71.613 43.688 58.331 63.236 54.5 85.938 C 69.572 65.987 93.623 53.075 120.694 53.079 C 126.281 53.08 131.739 53.631 137.01 54.696 C 125.601 41.346 108.943 32.536 90.202 31.405 Z " fill-rule="evenodd" fill="rgb(74,179,244)"/><path d=" M 41.385 49.041 C 37.711 70.122 42.41 92.356 55.471 110.483 C 51.883 85.821 59.671 59.848 78.816 40.894 C 82.369 37.377 86.166 34.247 90.15 31.498 C 89.032 31.429 87.902 31.4 86.767 31.4 C 69.249 31.397 53.296 38.09 41.385 49.041 Z " fill-rule="evenodd" fill="rgb(20,169,152)"/><path d=" M 20.193 94.062 C 32.653 111.306 51.711 123.557 73.7 127.197 C 53.554 112.271 40.516 88.452 40.52 61.642 C 40.521 57.095 40.897 52.633 41.631 48.291 C 29.106 59.819 21.016 76.008 20.193 94.062 Z " fill-rule="evenodd" fill="rgb(10,84,76)"/><path d=" M 37.471 141.019 C 59.357 144.618 82.426 139.463 100.921 125.558 C 75.38 129.869 48.182 122.26 28.488 102.728 C 25.384 99.648 22.578 96.385 20.087 92.964 C 20.025 93.997 20 95.039 20 96.087 C 19.997 113.367 26.608 129.13 37.471 141.019 Z " fill-rule="evenodd" fill="rgb(14,118,106)"/><path d=" M 80.396 161.48 C 98.364 149.154 111.167 129.956 114.917 107.736 C 99.845 127.687 75.794 140.6 48.722 140.595 C 44.428 140.595 40.21 140.269 36.097 139.625 C 47.282 151.801 62.889 159.918 80.396 161.48 Z " fill-rule="evenodd" fill="rgb(20,169,152)"/><path d=" M 128.461 147.137 C 133.396 124.974 128.944 101.169 115.111 81.97 C 118.698 106.632 110.911 132.605 91.766 151.559 C 88.108 155.18 84.193 158.39 80.076 161.187 C 82.179 161.394 84.314 161.494 86.471 161.495 C 102.308 161.497 116.889 156.13 128.461 147.137 Z " fill-rule="evenodd" fill="rgb(74,179,244)"/><path d=" M 152.476 101.545 C 139.657 81.305 118.184 66.978 93.19 63.416 C 114.095 78.174 127.827 102.142 128.204 129.439 C 128.296 136.057 127.597 142.513 126.194 148.718 C 140.734 137.401 150.593 120.56 152.476 101.545 Z " fill-rule="evenodd" fill="rgb(20,112,169)"/><path d=" M 136.507 54.092 C 114.879 50.099 91.947 54.684 73.313 67.853 C 98.215 64.3 124.441 72.012 143.58 90.972 C 146.88 94.241 149.842 97.718 152.457 101.365 C 152.553 99.998 152.596 98.618 152.597 97.227 C 152.599 80.767 146.539 65.698 136.507 54.092 Z " fill-rule="evenodd" fill="rgb(27,146,219)"/></g><defs><linearGradient id="_lgradient_9" x1="0.4993609275078774" y1="0.9850871355981335" x2="0.507078959958541" y2="0.007194394729624465"><stop offset="0%" style="stop-color:#0A544C"/><stop offset="98.69565217391305%" style="stop-color:#0A2623"/></linearGradient></defs><path d="M 20 20 L 55.59 20 C 55.59 20 55.59 20 55.59 20 L 55.59 93 C 55.59 93 55.59 93 55.59 93 L 20 93 C 20 93 20 93 20 93 L 20 20 C 20 20 20 20 20 20 Z" style="stroke:none;fill:url(#_lgradient_9);stroke-miterlimit:10;"/><rect x="40.5" y="93" width="15.086" height="19" transform="matrix(1,0,0,1,0,0)" fill="rgb(10,84,76)"/></g></svg>