<?xml version="1.0" encoding="UTF-8"?>
<svg id="Layer_2" xmlns="http://www.w3.org/2000/svg" viewBox="0 0 753.53 425.05">
  <defs>
    <style>
      .cls-1 {
        fill: #263779;
      }

      .cls-2 {
        fill: #fbd018;
      }

      .cls-3 {
        fill: #ce2129;
      }

      .cls-4 {
        fill: #273879;
      }
    </style>
  </defs>
  <g id="Layer_1-2" data-name="Layer_1">
    <g>
      <g>
        <polygon class="cls-3" points="61.86 138.56 0 92.6 0 46.65 61.86 92.6 61.86 138.56"/>
        <polygon class="cls-2" points="61.88 138.56 123.74 92.6 123.74 46.65 61.88 92.6 61.88 138.56"/>
        <polygon class="cls-1" points="61.88 93.02 0 46.65 59.68 0 123.74 46.65 61.88 93.02"/>
      </g>
      <path class="cls-3" d="M170.09,133.2c-59.67,0-108.22,46.78-108.22,104.29s48.54,104.29,108.22,104.29c27.79,0,53.16-10.16,72.35-26.81l-40.89-20.93c-9.37,4.86-20.09,7.63-31.46,7.63-36.72,0-66.6-28.79-66.6-64.18s29.88-64.18,66.6-64.18c26.93,0,50.16,15.49,60.64,37.7h-92.05l27.54,40.11h111.13c.61-4.47.95-9.01.95-13.64,0-57.5-48.54-104.29-108.22-104.29"/>
      <path class="cls-2" d="M417.47,133.21c-25.1,0-48.22,8.3-66.6,22.18V59.4l-41.62,36.88v142.81h.04c.9,56.76,49.06,102.68,108.18,102.68s108.22-46.78,108.22-104.29-48.55-104.29-108.22-104.29M417.47,301.67c-36.72,0-66.6-28.79-66.6-64.18s29.87-64.18,66.6-64.18,66.59,28.79,66.59,64.18-29.88,64.18-66.59,64.18"/>
      <g>
        <path class="cls-4" d="M355.89,399.16v3.71c0,4.57-3.36,7.06-10.21,7.06h-3.24v10.73h-6.84v-28.56h10.08c6.85,0,10.21,2.49,10.21,7.06M342.45,396.18v9.67h3.24c2.18,0,3.36-.65,3.36-2.69v-4.28c0-2.04-1.18-2.69-3.36-2.69h-3.24Z"/>
        <path class="cls-4" d="M395.97,420.66h-6.91l-1.18-5.18h-8.4l-1.18,5.18h-6.29l6.97-28.56h10.02l6.97,28.56ZM380.34,411.61h6.6l-3.3-14.44-3.3,14.44Z"/>
        <path class="cls-4" d="M434.48,410.01v3.8c0,4.57-3.48,7.18-10.21,7.18s-10.21-2.61-10.21-7.18v-14.85c0-4.57,3.48-7.18,10.21-7.18s10.21,2.61,10.21,7.18v2.77h-6.47v-3.06c0-2.04-1.37-2.82-3.55-2.82s-3.55.77-3.55,2.82v15.42c0,2.04,1.37,2.78,3.55,2.78s3.55-.73,3.55-2.78v-4.08h6.47Z"/>
        <polygon class="cls-4" points="463.17 409.28 461.05 411.89 461.05 420.66 454.2 420.66 454.2 392.1 461.05 392.1 461.05 404.55 470.01 392.1 476.86 392.1 467.34 404.83 476.86 420.66 469.83 420.66 463.17 409.28"/>
        <path class="cls-4" d="M517.67,420.66h-6.91l-1.18-5.18h-8.4l-1.18,5.18h-6.28l6.97-28.56h10.02l6.97,28.56ZM502.06,411.61h6.6l-3.3-14.44-3.3,14.44Z"/>
        <path class="cls-4" d="M546.61,404.75h9.58v9.06c0,4.57-3.48,7.18-10.21,7.18s-10.21-2.61-10.21-7.18v-14.85c0-4.57,3.49-7.18,10.21-7.18s10.21,2.61,10.21,7.18v2.77h-6.47v-3.06c0-2.04-1.37-2.82-3.55-2.82s-3.55.77-3.55,2.82v15.42c0,2.04,1.37,2.78,3.55,2.78s3.55-.73,3.55-2.78v-5.26h-3.11v-4.08Z"/>
        <rect class="cls-4" x="576.17" y="392.1" width="6.84" height="28.56"/>
        <polygon class="cls-4" points="609.65 399.98 609.65 420.66 603.48 420.66 603.48 392.1 612.07 392.1 619.11 409.2 619.11 392.1 625.2 392.1 625.2 420.66 618.17 420.66 609.65 399.98"/>
        <path class="cls-4" d="M655.94,404.75h9.58v9.06c0,4.57-3.48,7.18-10.21,7.18s-10.21-2.61-10.21-7.18v-14.85c0-4.57,3.49-7.18,10.21-7.18s10.21,2.61,10.21,7.18v2.77h-6.47v-3.06c0-2.04-1.37-2.82-3.55-2.82s-3.55.77-3.55,2.82v15.42c0,2.04,1.37,2.78,3.55,2.78s3.55-.73,3.55-2.78v-5.26h-3.11v-4.08Z"/>
      </g>
      <path class="cls-1" d="M713.5,206.96l-1.05,39.09c.5,27.74-21.96,51.26-50.74,52.13-.72.02-1.44.03-2.15.03-38.08,0-68.86-30.72-67.06-67.8,1.59-32.62,28.68-59.28,62.49-61.45,21.97-1.41,42.71,14.14,55.95,28.75l38.84-23.23c-20.19-28.57-54.59-47.1-93.32-46.06-57.1,1.54-103.7,45.93-105.91,100.93-2.41,59.85,47.42,109.29,109.01,109.29,18.16,0,35.28-4.31,50.35-11.91v10.91c0,19.62-9.12,28.31-23.49,40.19v47.23c38.11-16.1,64.9-43.67,65.42-86.15h.02l1.66-155.67-40.03,23.73Z"/>
    </g>
  </g>
</svg>