<?xml version="1.0" encoding="utf-8"?>
<!-- Generator: Adobe Illustrator 23.0.3, SVG Export Plug-In . SVG Version: 6.00 Build 0)  -->
<svg version="1.1" id="Layer_1" xmlns="http://www.w3.org/2000/svg" xmlns:xlink="http://www.w3.org/1999/xlink" x="0px" y="0px"
	 viewBox="0 0 908 208" style="enable-background:new 0 0 908 208;" xml:space="preserve">
<style type="text/css">
	.st0{fill:#E5001C;}
</style>
<g id="XMLID_869_">
</g>
<g id="XMLID_1_">
	<path id="XMLID_854_" d="M304.5,60.55l-25.56,84.71h15.15l5.37-18.55h29.24l5.25,18.55h15.93l-25.5-84.73L304.5,60.55
		 M303.31,113.18l10.71-37.88l10.84,37.88H303.31z M402.69,114.88c-0.04,6.46-1.27,11.04-3.87,13.77
		c-2.51,2.73-6.75,4.08-12.79,4.08c-5.69,0-9.79-1.38-12.32-4.22c-2.57-2.8-3.83-7.38-3.86-13.63l0.03-54.3l-15.95-0.03l0.03,53.6
		c-0.03,10.94,2.65,19.14,7.95,24.49c5.27,5.38,13.29,8.08,24.12,8.08c10.28,0,18.22-2.61,23.75-7.8
		c5.61-5.17,8.35-12.59,8.35-22.18l0.02-56.16l-15.46-0.03V114.88z M461.31,115.58h15.85c-0.74,5.32-2.49,9.51-5.54,12.63
		c-2.96,2.95-6.71,4.48-11.27,4.52c-5.8,0-10.25-2.53-13.38-7.69c-3.16-5.13-4.67-12.47-4.71-22.04c0-9.95,1.55-17.49,4.71-22.59
		c3.13-5.11,7.78-7.68,13.86-7.68c3.62,0,6.71,1.01,9.32,2.93c2.55,1.93,4.71,4.89,6.41,8.83l14.48-3.57
		c-2.1-6.93-5.7-12.2-10.83-15.94c-5.1-3.6-11.43-5.46-19.07-5.46c-11.02,0-19.65,3.69-25.82,11.21
		c-6.09,7.48-9.22,17.92-9.22,31.29c0,14.01,2.89,24.98,8.57,32.84c5.71,7.9,13.63,11.86,23.74,11.86c4.96,0,9.22-0.8,12.86-2.55
		c3.64-1.63,6.79-4.21,9.45-7.77l0.82,8.9h11.31v-43.06l-31.54,0.01V115.58z M536.77,96.6c-1.68-0.74-4.01-1.69-7.03-2.88
		c-9.76-3.81-14.61-7.89-14.61-12.17c-0.03-2.76,1.03-4.96,3-6.58c1.96-1.62,4.68-2.46,8.13-2.46c3.59,0.02,6.6,0.89,9.02,2.64
		c2.37,1.74,4.53,4.5,6.28,8.28l14.49-5.29c-2.25-6.16-5.71-10.69-10.49-13.81c-4.93-3.15-10.85-4.64-18.07-4.64
		c-8.24,0-14.86,2.1-19.97,6.39c-5.15,4.23-7.7,9.78-7.71,16.65c0.01,4,0.88,7.61,2.51,10.77c1.79,3.25,4.22,5.81,7.46,7.88
		c3.28,2.12,9.09,4.69,17.38,7.77l2.78,1.02c4.74,1.72,8.01,3.54,9.85,5.27c1.77,1.76,2.73,3.88,2.73,6.53
		c0,3.29-1.25,5.99-3.7,7.84c-2.47,1.93-5.86,2.93-10.06,2.93c-3.78,0-6.98-1.04-9.76-3.16c-2.81-2.02-5.27-5.32-7.49-9.81
		l-14.43,6.48c2.75,6.67,6.79,11.66,12.23,15.1c5.41,3.4,12.03,5.1,19.77,5.1c8.95,0,15.97-2.26,21.09-6.71
		c5.12-4.48,7.67-10.6,7.72-18.46c0-5.75-1.5-10.52-4.41-14.11C550.5,103.56,544.93,100.03,536.77,96.6 M611.98,100.9
		c4.27-2.09,7.39-4.57,9.41-7.45c1.98-2.85,2.97-6.33,2.97-10.45c0-7.25-2.41-12.88-7.26-16.71c-4.88-3.85-11.9-5.76-21.17-5.76
		l-30.72-0.02l0.03,84.77l29.84-0.04c10.57,0,18.42-1.92,23.6-5.84c5.12-3.98,7.71-9.94,7.71-17.94c0-5.23-1.2-9.54-3.59-12.98
		C620.34,105.06,616.79,102.5,611.98,100.9 M580.83,73.59h12.02c5.61,0,9.65,0.82,12.08,2.47c2.44,1.62,3.73,4.25,3.73,7.94
		c0,3.51-1.26,6.07-3.69,7.84c-2.52,1.72-6.22,2.63-11.2,2.66l-12.95-0.02V73.59z M606.41,129.2c-2.66,2.02-6.81,3.04-12.64,3.04
		h-13.01v-25.1l13.75,0.02c5.36,0,9.32,1.03,11.96,3.06c2.61,2.04,3.87,5.16,3.87,9.26C610.35,123.91,609.05,127.19,606.41,129.2
		 M685.56,114.88c0,6.46-1.29,11.09-3.8,13.77c-2.52,2.7-6.81,4.08-12.84,4.08c-5.67,0-9.78-1.42-12.35-4.21
		c-2.57-2.81-3.78-7.37-3.8-13.68l0.02-54.3l-15.94,0.03v53.55c0,10.96,2.64,19.16,7.94,24.56c5.22,5.32,13.36,8.03,24.13,8.03
		c10.28,0,18.2-2.61,23.74-7.79c5.62-5.18,8.35-12.6,8.35-22.21l0.06-56.17h-15.51V114.88z M770.46,99.61
		c2.74-3.67,4.05-8.26,4.1-13.79c0-8.51-2.64-14.92-7.9-19.03c-5.21-4.18-13.23-6.27-23.92-6.25l-28.72-0.02v84.77h15.65v-34.43
		h14.5l16.34,34.39l17.06,0.04l-18.71-38.11C763.86,105.82,767.8,103.29,770.46,99.61 M754.76,94.58
		c-2.39,1.86-6.09,2.82-11.25,2.82h-13.83V73.98h13.83c5.16,0,8.87,0.95,11.31,2.84c2.39,1.92,3.59,4.88,3.57,8.86
		C758.38,89.74,757.2,92.74,754.76,94.58 M816.04,102.25l-0.03,13.33h15.84c-0.7,5.32-2.5,9.51-5.47,12.58
		c-2.98,3.03-6.74,4.57-11.3,4.57c-5.81-0.04-10.26-2.56-13.39-7.69c-3.16-5.13-4.7-12.47-4.67-22.04
		c-0.03-9.96,1.51-17.49,4.64-22.59c3.16-5.11,7.81-7.68,13.87-7.68c3.59,0,6.7,0.97,9.31,2.93c2.59,1.93,4.72,4.89,6.44,8.83
		l14.5-3.54c-2.15-6.96-5.76-12.23-10.89-15.93c-5.07-3.64-11.44-5.52-19.03-5.52c-11,0-19.69,3.78-25.82,11.24
		c-6.17,7.48-9.23,17.92-9.23,31.31c0,13.99,2.87,24.96,8.6,32.87c5.76,7.84,13.59,11.81,23.67,11.81c4.99,0,9.29-0.8,12.92-2.55
		c3.62-1.63,6.82-4.21,9.46-7.77l0.81,8.86h11.29v-43.01H816.04z"/>
	<path id="XMLID_851_" class="st0" d="M222,22.06l0.03,30.98h31.88V22.06H222 M222,184.7h31.92l0.01-123.68H222V184.7z"/>
	<path id="XMLID_848_" d="M182.26,131.66l-41.31,0.01l41.31-50.94V131.66 M185.09,22.06L50.4,184.71l47.37-0.02l18.31-20.89h66.18
		v20.89h30.98V22.06H185.09z"/>
	<g id="XMLID_165_">
		<path id="XMLID_843_" class="st0" d="M278.94,184.71v-28.22h5.51v28.22H278.94z"/>
		<path id="XMLID_841_" class="st0" d="M331.5,184.71l-11.18-17.32v17.32h-5.51v-28.22h4.91l11.18,17.28v-17.28h5.51v28.22H331.5z"
			/>
		<path id="XMLID_839_" class="st0" d="M377.56,161.41v23.3h-5.51v-23.3h-7.37v-4.91h20.25v4.91H377.56z"/>
		<path id="XMLID_837_" class="st0" d="M413.19,184.71v-28.22h18.59v4.91H418.7v6.62h11.14v4.91H418.7v6.86h13.08v4.91H413.19z"/>
		<path id="XMLID_834_" class="st0" d="M475.93,184.71l-5.51-11.26h-3.96v11.26h-5.51v-28.22h11.06c5.75,0,9.16,3.92,9.16,8.64
			c0,3.96-2.42,6.42-5.15,7.41l6.3,12.17H475.93z M471.65,161.41h-5.19v7.45h5.19c2.42,0,4-1.55,4-3.72
			C475.65,162.95,474.07,161.41,471.65,161.41z"/>
		<path id="XMLID_832_" class="st0" d="M527.34,184.71l-11.18-17.32v17.32h-5.51v-28.22h4.91l11.18,17.28v-17.28h5.51v28.22H527.34z
			"/>
		<path id="XMLID_828_" class="st0" d="M578.67,184.71l-1.66-4.99h-10.03l-1.7,4.99h-5.75l10.26-28.22h4.32l10.3,28.22H578.67z
			 M572.09,164.82l-3.57,10.26h7.01L572.09,164.82z"/>
		<path id="XMLID_826_" class="st0" d="M620.09,161.41v23.3h-5.51v-23.3h-7.37v-4.91h20.25v4.91H620.09z"/>
		<path id="XMLID_824_" class="st0" d="M655.72,184.71v-28.22h5.51v28.22H655.72z"/>
		<path id="XMLID_178_" class="st0" d="M708.67,181.86c-1.98,1.98-4.4,3.09-7.61,3.09c-3.21,0-5.67-1.11-7.65-3.09
			c-2.85-2.85-2.77-6.38-2.77-11.25s-0.08-8.4,2.77-11.26c1.98-1.98,4.44-3.09,7.65-3.09c3.21,0,5.63,1.11,7.61,3.09
			c2.85,2.85,2.81,6.38,2.81,11.26S711.52,179,708.67,181.86z M704.59,162.68c-0.79-0.91-2.02-1.51-3.53-1.51
			c-1.51,0-2.77,0.59-3.57,1.51c-1.07,1.19-1.35,2.5-1.35,7.93c0,5.43,0.28,6.74,1.35,7.93c0.79,0.91,2.06,1.51,3.57,1.51
			c1.51,0,2.73-0.59,3.53-1.51c1.07-1.19,1.39-2.5,1.39-7.93C705.98,165.17,705.66,163.87,704.59,162.68z"/>
		<path id="XMLID_174_" class="st0" d="M757.58,184.71l-11.18-17.32v17.32h-5.51v-28.22h4.91l11.18,17.28v-17.28h5.51v28.22H757.58z
			"/>
		<path id="XMLID_169_" class="st0" d="M808.91,184.71l-1.67-4.99h-10.03l-1.7,4.99h-5.75l10.26-28.22h4.32l10.3,28.22H808.91z
			 M802.33,164.82l-3.57,10.26h7.01L802.33,164.82z"/>
		<path id="XMLID_167_" class="st0" d="M841.93,184.71v-28.22h5.51v23.3h12.8v4.91H841.93z"/>
	</g>
</g>
</svg>
