<svg height="288.197591" viewBox="0 0 484 402" width="346.984164" xmlns="http://www.w3.org/2000/svg" xmlns:xlink="http://www.w3.org/1999/xlink"><mask id="a" fill="#fff"><path d="m.0212441.463h328.1393319v271.3017h-328.1393319z" fill="#fff" fill-rule="evenodd"/></mask><mask id="b" fill="#fff"><path d="m.8177.61273712h254.9793v26.46673198h-254.9793z" fill="#fff" fill-rule="evenodd"/></mask><g fill="none" fill-rule="evenodd"><path d="m412.1766 18.8617c-2.88 4.786-8.025 13.04-14.988 15.145-6.153 1.86-12.068-.701-15.792-4.427.361-1.225.739-3.533-.214-7.65-.132-.572-.77-.698-.937-.187-.691 2.113-1.507 3.546-2.143 4.544-3.754-3.933-11.344-12.819-22.459-19.113-13.368-7.966-27.185-7.021-37.041-3.848-4.582-1.108-10.842-.946-16.403 1.688-3.246 1.538-6.343 4.292-8.637 6.046-2.056 1.572-5.502 3.06-7.721 3.672-2.518.694-5.022.486-5.345-3.564-4.212 1.296-4.859 7.451-4.859 7.451s-4.211 0-3.726-5.507c-5.344 4.05-2.753 9.88-2.753 9.88s-6.587-.108-7.558 5.885c2.105-2.214 4.319-2.699 5.296-2.073-2.361 1.873-3.912 3.708-4.649 6.932.756-.297 1.404-.459 2.052-.702-1.276 2.642-1.721 6.532-1.836 7.829-2.813 2.7-4.758 5.616-5.189 6.695-3.887 4.104-8.098 9.827-12.633 14.038-4.611 4.28-8.738 14.158-10.792 16.951-3.941 5.507-3.563 9.556-.324 11.338-.54 1.296-1.458 3.239-.81 5.507s3.402 4.049 4.697 4.049c-1.295 5.021 4.05 4.616 3.887 6.884-.161 2.267-1.943 2.51-3.563 5.912-1.619 3.401-.729 7.045.891 9.475 1.62 2.429 2.349 2.672 3.078 3.968-5.649.001-11.696 3.24-14.125 3.24-2.43 0-7.1 1.134-12.195 3.724 1.775.245 4.049.325 4.697 1.458-4.802 1.372-7.366 3.146-8.88 4.642-.785-17.571-6.309-40.125-7.476-44.729 2.976-4.367 6.553-12.28-.318-16.07-8.641-4.766-10.689-2.273-12.957-2.274-2.267-.001-4.855.153-9.879-2.433-9.816-5.055-20.506-3.952-23.826-3.76-7.006.405-12.184 5.436-15.861 6.17-4.859.97-10.581.103-13.497.75-2.916.646-6.48 1.292-11.557 6.473-2.41 2.459-7.884 3.668-9.504 4.315s-5.465 3.15-7.13 7.664c-1.513 4.102-2.812 9.824-1.626 13.064.705 1.924 1.613 2.858 2.59 4.212 1.032 1.431 2.219 4.085 1.401 6.048-2.477 5.942-.992 10.116 1.194 13.176 2.519 3.527 1.841 10.063 5.107 12.501 1.048 11.092 2.128 15.574 3.158 21.302-1.338 1.187-4.079 3.65-7.07 6.526-2.679 2.575-8.639 11.932-9.287 14.955-.647 3.024-5.938 13.551-8.53 17.924-.905 1.528 3.779 2.484 7.991-.647-.728.987-.966 2.191-1.578 2.95-.657.817-.449 1.515.703 1.669 2.809.376 8.217-.624 14.912-3 5.811-2.062 10.148-10.645 10.953-12.308 3.185 8.26 6.676 14.943 9.834 20.634 1.521 2.741 4.103 6.318 5.882 6.266 8.821-.256 18.155-1.202 21.525-1.57-1.497 4.689-3.35 9.089-2.033 14.027-.324 3.887-2.106 11.878-3.078 15.549.82 2.049 8.284-.779 10.731-2.363-.049.227-.097.453-.149.689-.133.606-.43 2.4 1.296 2.268 7.019-.54 14.645-5.349 16.844-8.099 2.592-3.239 2.37-7.893 2.37-7.893s1.95-.151 3.894-.313c-.973-.972-1.944-1.836-2.484-2.808.54.433 4.211-.323 5.183-.647-1.035-1.281-3.852-4.739-3.132-5.291 1.944 1.296 3.546 2.217 5.076 2.159-.144-.177-.113-.759.027-1.573 4.293 3.166 7.736 10.112 15.675 12.634 1.682-2.531 3.08-6.477 3.731-13.765-1.514.79-2.754 1.294-4.698 1.131 4.913-4.054 5.864-10.025 5.909-13.861.306 1.597.628 3.563.843 6.04.648 7.451-.648 13.713-1.842 17.267 2.382-1.502 4.218-5.012 4.218-5.012s1.734.821-.864 6.965c3.03-.638 3.671-.863 5.723-2.699 1.944 2.808-.655 7.872-.655 7.872s3.246-.313 5.183-2.915c3.894 4.06-2.909 9.566-2.909 9.566s5.831 1.457 10.36-5.355c-2.465 5.984-3.012 9.985-2.686 13.002 1.181-.683 6.58-2.41 8.739-2.194-.864 3.023-.014 6.768.648 8.422 2.214-2.214 5.291-3.995 11.77-3.185-.405.567-4.94 2.511-5.021 3.239 5.345-.972 16.521 3.564 33.635-1.781.432 2.159-.431 4.967-6.911 10.689 9.641-.701 22.433-3.563 33.123-7.126.162.729-.162 2.025-.513 2.7 7.688-2.47 16.495-7.305 23.108-12.526 2.159 6.263 8.206 11.014 14.122 12.723-1.813-4.841-2.461-10.995-.517-15.53 2.915 9.394 7.775 18.356 14.875 21.744-3.214-6.411-4.774-22.044-4.06-29.345.872 1.182 2.95 1.635 4.092 1.856-2.547-4.13-4.813-11.392-3.806-19.939.968-8.213-.196-25.928-.296-26.576.075.026 1.008.445 2.458 5.828 2.663-8.606-2.72-14.878-1.987-20.479.588 1.782 1.41 3.342 2.545 3.851-2.375-21.812 10.799-29.154 7.342-49.023 1.296 1.62 2.592 1.728 3.888 1.296-1.512-3.671.216-12.309-1.727-23.323 2.159 1.08 1.511.972 3.239 2.159-.649-6.154-2.916-9.934-3.888-11.877 1.08 1.295 2.376.432 3.672.432-2.808-4.104-1.296-9.718-5.615-21.812 1.62-.324 1.08.216 3.455 1.295-1.728-7.126-4.967-12.525-4.967-12.525 10.683-.314 17.896-4.985 20.542-7.471.692-.651.426-1.021-.289-1.2-13.889-2.854-17.937-6.175-25.684-12.931-.357-.584 2.083.276 4.351-1.02-3.562-.648-6.479-3.401-6.479-3.401s3.24.486 5.832-.972c-5.669-.809-7.451-4.859-7.451-4.859s-.098-.539-.318-1.398c1.613.966 13.167 4.53 22.052.59 6.484 3.769 14.035 7.522 21.998 5.019 3.386-1.064 17.18-6.75 19.273-25.59.324-2.916-1.362-2.99-1.943-2.025" fill="#f1ede4"/><path d="m108.9109 141.5558s3.019 21.644 5.134 30.634c2.116 8.991 11.241 32.866 13.616 37.241s7.25 8.75 7.25 8.75l23.375-1.625s1.375-4.125 7.25-13.125 13.625-20.625 16.75-30.75 11.125-22.375 14-25 13.375-2.375 13.375-2.375.375-10.375-.375-15.375-4.625-25.125-4.625-25.125l-86.268 18.547s-3.357.578-3.732 5.328.375 9.25-1.75 10.5-4.125.875-4.125.875z" fill="#f3960c"/><path d="m158.0862 211.5206c-1.317 2.244-2.735 3.546-5.225 4.319-2.521.782-5.083 1.43-7.671 1.938-3.988.785-8.209-2.424-11.277-4.553-1.054-.731-2.153-1.424-3.019-2.369-.763-.831-1.318-1.828-1.866-2.814-1-1.801-2.001-3.602-3.001-5.403-1.063-1.915-2.128-3.834-2.971-5.855-1.041-2.5-1.73-5.13-2.602-7.694-2.614-7.712-5.659-15.122-7.478-23.097-1.202-5.272-2.432-10.442-2.763-15.867-.077-1.275-.447-2.515-.612-3.782-.133-1.027-.451-3.068.892-3.392.558-.135 1.153-.031 1.709-.168.708-.175 1.274-.728 1.631-1.363.358-.635.535-1.353.709-2.06.221-.901.442-1.801.663-2.702.161-.657.332-1.335.744-1.872.411-.537 1.133-.898 1.774-.683.178 1.314.856 2.473 1.187 3.74 1.931 7.399 3.355 14.93 4.65 22.459.452 2.627.924 5.251 1.345 7.884.454 2.841 1.16 5.662 1.812 8.481 1.038 4.488 2.664 8.814 4.545 13.011.943 2.102 1.951 4.175 2.984 6.234.802 1.598 1.161 3.644 2.747 4.709.606.407 1.31.647 2.021.813 1.856.434 3.18-.063 5-.384 1.961-.346 3.923-.684 5.888-1.001 2.457-.396 4.919-.759 7.406-1.071.391-.044 2.226-.348 2.162.423-.022.276-.243.489-.456.665-1.385 1.143-3.072 1.915-4.842 2.214-.336.057-.686.1-.98.273-.293.173-.519.518-.434.848.206.803 1.335.538 1.902.827.904.46 1.349 1.519 2.313 1.983.283.137.646.391.505.673-.089.178-.326.208-.524.221-.81.057-1.612.234-2.371.523-.395.151-.876.34-.744.88.978-.026 1.956-.051 2.935-.077.461-.012.957-.015 1.339.245.433.295.605.872.547 1.393s-.308.999-.574 1.451" fill="#ef8109"/><path d="m191.4963 155.2032c-.115.104-.23.207-.346.31-.044-2.126-.789-2.868-2.896-2.886.364-2.19.758-4.377.659-6.649.383.146.417.454.565.677 1.253 1.89 3.208 2.614 5.309 1.968 1.646-.507 2.799-2.255 2.83-4.284.004-.28.009-.56.04-.837.338-2.996.8-5.982.893-8.999.025-.786.251-1.298 1.025-1.255.759.043.421.751.419 1.149-.004 1.411-.044 2.769 1.128 3.875.933.88 2.021 1.223 3.225 1.378-.057 3.466 1.067 4.796 4.041 4.782-1.326 1.055-2.778 1.022-4.297.519-1.389-.461-2.805-.032-4.095.27-.789.184-1.271 1.434-1.681 2.348-.478.285-.956.57-1.434.855-1.775.185-2.695 1.59-3.832 2.684-1.162 1.12-1.729 2.467-1.553 4.095" fill="#f3970e"/><path d="m208.3879 144.431809c-2.974.013891-4.097-1.315109-4.041-4.781109 1.179-.186 2.166-.762 3.034-1.545 2.045-1.844 2.693-4.865 1.457-6.84-1.1-1.758-1.277-3.444-.662-5.322 1.129.42 1.195 1.498 1.417 2.422.518 2.155.545 4.379.805 6.571-.015.213-.031.427-.047.639.058.085.116.171.174.256l.029.01c.102 2.168.205 4.336.308 6.504l.015-.024c-.24.035-.305.204-.315.415-.459.693-1.085 1.18-1.846 1.502-.105.063-.21.126-.315.188z" fill="#e95f10"/><path d="m209.4001 190.7823c-.014-1.224-.068-2.414-.431-3.629-.878-2.943-4.276-4.218-6.615-1.754-.127.133-.329.196-.496.291 1.087-3.538 5.306-4.367 7.548-1.676.552.662.899 1.416.917 2.279.034 1.562-.347 3.048-.923 4.489" fill="#f7ad21"/><path d="m193.2561 219.8102c1.941.866 3.888 1.147 5.721-.202 1.245-.917 2.159-2.172 3.085-3.399.117-.154.22-.319.33-.48-.041 1.737-.693 3.272-1.78 4.567-1.975 2.354-5.672 2.074-7.356-.486" fill="#f7ad21"/><path d="m214.2493 188.1085c.63.201 1.194.542 1.912.542 1.465 0 2.081.96 1.611 2.358-1.196-.824-2.393-1.647-3.59-2.471.023-.143.045-.286.067-.429" fill="#c48f6a"/><path d="m201.9953 183.1622c0-.885.349-1.761-.21-2.652-.317-.505.343-.811.656-1.131.327-.333.596-.76 1.099-.877-.29 1.628-.42 3.309-1.545 4.66" fill="#c5916d"/><path d="m210.5622 142.7364c.009-.211.074-.379.315-.415-.007.213-.125.342-.315.415" fill="#f3970e"/><path d="m210.5251 135.8321c-.058-.085-.116-.171-.174-.256.058.086.116.171.174.256" fill="#f3970e"/><path d="m208.4011 144.4269c.105-.062.21-.125.315-.188-.105.063-.21.126-.315.188" fill="#f3970e"/><path d="m127.9119 126.6178c-1.463.709-2.886 1.502-4.339 2.229-1.211.606-2.551 1.083-3.566 2.021-.442.408-1.177 1.492-1.858.628-.194-.244-.193-.585-.18-.896.073-1.823.232-3.646.488-5.453.15-1.055-.03-2.454 1.084-2.989 2.722-1.308 5.547-2.59 8.561-2.772 1.122-.068 2.252.02 3.372-.082 2.046-.187 3.983-.975 5.976-1.425 2.088-.471 4.213-.781 6.35-.928 1.499-.103 3.004-.125 4.505-.066 1.67.066 3.239.105 4.905.012 4.29-.237 8.493-.529 12.749.015 4.765.609 9.563-.162 14.23-1.107 4.417-.894 9.289-.631 13.801-.473.482.017.963.037 1.444.061-1.383.649-2.944.782-4.468.897-6.373.479-12.873.83-18.85 3.092-1.078.407-2.22.924-3.065 1.725-.897.849-1.204 2.061-1.68 3.161-4.633.108-9.267.216-13.9.324-2.777-.088-5.533.224-8.283.522-.954.103-1.899.069-2.846.138-.423.03-.89-.103-1.216.309-1.202-1.074-2.608-1.382-4.195-1.268-3.175.228-6.152.934-9.019 2.325" fill="#fdd121"/><path d="m209.218 131.1969c.278 1.514.469 2.94-.193 4.403-.696 1.535-1.909 2.792-3.042 4.012-2.3 2.475-4.823 4.741-7.53 6.763-3.644 2.721-7.022 5.412-9.561 9.263-.555.842-1.066 1.713-1.529 2.608-.433.837-.476 1.534-.731 2.388-.519 1.729-2.476 3.421-4.218 3.783-1.131.235-2.401-.084-3.171-.946-.901-1.009-.971-2.489-.99-3.842-.056-4.003.317-8.221-.126-12.192-.424-3.801-.608-7.711-.109-11.533.128-.978.304-1.97.15-2.944-.503-3.16-.893-6.417 1.779-8.83 1.107-1.001 2.503-1.639 3.939-2.05 2.64-.756 5.6-.753 8.011.559 1.075.585 1.836 1.714 2.869 2.429.599.414 1.29.797 2.014.714.566-.064 1.068-.413 1.436-.848.638-.753 1.196-1.931 1.552-2.852 1.031-2.663.562-5.839.556-8.637 0-.141.001-.286.059-.414.073-.161.226-.269.376-.363.954-.602 2.057-.969 3.182-1.059.962-.077 1.839.942 2.221 1.762.173.372.264.776.353 1.176.217.966.433 1.932.65 2.898.244 1.089.11 2.077.275 3.133.334 2.139.591 4.291.989 6.411.239 1.273.478 2.547.717 3.821.025.13.049.259.072.387" fill="#ef8109"/><path d="m165.9304 176.7511c.165 3.166-.297 6.362.285 9.495.014.072.028.146.071.206.094.131.282.142.443.137 1.1-.037 2.193-.275 3.21-.693.416-.171 1.156-.804 1.564-.834.597-.044.657.406.235.889-.215.246-.51.407-.799.561-2.307 1.228-5.364 3.333-8.086 2.59-1.804-.493-4.063-1.594-5.157-3.18-1.959-2.838-2.175-6.505-2.542-9.837-.404-3.662-.532-7.369-1.378-10.968-.639-2.718-.886-5.319-1.156-8.069-.221-2.253-.442-4.507-.663-6.76-.061-.621-.119-1.267.1-1.852.383-1.024 1.969-1.279 2.879-1.702 1.136-.526 2.292-1.023 3.546-1.18.969-.121 1.348.198 1.605.945 1.206 3.497 2.43 6.988 3.576 10.505.791 2.428 1.088 4.958 1.324 7.496.375 4.048.73 8.146.943 12.251" fill="#fdd121"/><path d="m153.4709 124.5914c4.633-.107 9.267-.215 13.9-.323.085 1.308.137 2.621.276 3.924.044.416.204.979.507 1.182 1.681 1.123 1.256 2.966 1.584 4.512.743 3.495.509 7.06.511 10.603 0 .258.109.563-.244.81-.401-.892-.855-1.743-1.175-2.642-1.178-3.313-3.681-4.718-7.011-4.911-.774-.045-1.115-.228-1.193-1.084-.144-1.575-.461-3.135-.704-4.701-.094-.599-.572-.51-.934-.45-1.057.175-2.074.416-2.996 1.071-1.28.907-2.806.916-4.099.206-1.333-.734-2.166-2.011-2.032-3.673.122-1.513.93-2.586 2.237-3.31.547-.303 1.225-.459 1.373-1.214" fill="#ef8109"/><path d="m137.8215 178.7872c1.401-.144 2.806-.549 3.364-1.99.245-.634.292-1.328.286-2.009-.012-1.371-.232-2.74-.644-4.048-.388-1.236-1.039-2.311-1.567-3.478-.257-.57-.434-1.171-.608-1.771-.808-2.775-1.581-5.559-2.319-8.352-.609-2.304-1.196-4.625-1.407-6.998-.076-.863.405-1.395 1.162-1.693 2.074-.819 4.348-.965 6.38-1.933.545-.26.659.318.801.647.53 1.222.682 2.546.784 3.843.121 1.545.386 3.085.288 4.648-.131 2.091.36 4.117.794 6.132.447 2.078.689 4.165.617 6.276-.119 3.473.365 6.831 1.698 10.047.317.763.104 1.019-.646 1.37-2.333 1.091-4.821.931-7.266 1.112-1.215.091-1.629-.739-1.717-1.803" fill="#fdd121"/><path d="m140.5202 132.7374c.402.155.74.425.961.875.241.491.27 1.056.279 1.603.016.947-.015 1.895-.092 2.839-.093 1.139-.457 1.492-1.533 1.733-2.83.635-5.624 1.343-8.302 2.472-.799.337-1.544.38-2.361-.164-.986-.657-2.183-.413-3.122.567-.694.725-1.1.577-1.503-.228-.674-1.345-.709-2.714.071-3.984.809-1.314 1.669-2.62 3.035-3.468.269-.167.507-.393.55-.745 2.778-.645 5.511-1.602 8.403-1.531.998.024 2.537-.385 3.614.031" fill="#ef8109"/><path d="m186.6111 163.1827c-.004.001-.007.004-.011.005v.009s.011-.014.011-.014" fill="#e95f10"/><path d="m137.8215 178.7872c-2.336-.494-3.481-1.991-4.036-4.279-.919-3.793-1.429-7.669-2.412-11.443-.874-3.357-.859-6.773-.719-10.187.047-1.148.194-2.468 1.244-3.121.548-.341 1.194-.48 1.825-.614.533-.112 1.083-.281 1.63-.305.656-.028.703.869.86 1.358.558 1.746 1.022 3.54 1.222 5.357.22 1.994.464 4.004 1.139 5.905 1.356 3.819 2.549 7.697 3.78 11.559.189.593.344 1.205.205 1.875-.508 2.436-1.898 3.603-4.738 3.895" fill="#fef2a8"/><path d="m140.9519 131.651c-.641.478-1.316.839-2.094.93-.857.1-1.721.106-2.582.142-1.942.081-3.878.308-5.785.679-1.826.354-3.565.729-5.119 1.783-.313.213-.638.438-.818.771-.034.062-.509-.608-.542-.666-.175-.305-.299-.636-.399-.971-.207-.695-.297-1.417-.426-2.129-.134-.74-.259-1.494-.161-2.239.111-.838.566-1.434 1.109-2.04.543-.607 1.401-.689 2.139-.908 1.178-.351 2.298-.999 3.482-1.374 2.326-.738 4.743-1.162 7.175-1.336 1.587-.114 2.993.194 4.195 1.268 1.56 2.076 1.401 4.103-.174 6.09" fill="#fef2a8"/><path d="m179.5837 123.7677c3.311-2.021 7.071-3.054 10.905-2.007.996.272 4.928 2.241 3.299 3.814-.308.297-.811.131-1.206-.031-3.949-1.627-8.784-1.182-12.939-.776-.149.014-.314.025-.435-.063-.325-.236.034-.728.376-.937" fill="#f7ad21"/><path d="m153.6252 125.4757c3.311-2.021 7.072-3.054 10.905-2.007.996.272 4.928 2.241 3.299 3.814-.308.297-.811.132-1.206-.031-3.949-1.627-8.784-1.182-12.938-.776-.15.015-.315.025-.436-.063-.324-.236.034-.728.376-.937" fill="#f7ad21"/><path d="m180.573 175.6656c.443-1.85 1.154-3.608 1.979-5.307 1.087-2.24 2.061-4.547 3.488-6.611.159-.23.268-.49.572-.565-1.075 4.615-2.401 9.108-6.039 12.483" fill="#f3970e"/><path d="m191.4963 155.2032c-.176-1.628.391-2.975 1.553-4.095 1.137-1.094 2.057-2.499 3.832-2.684-1.352 1.198-1.17 3.349-2.738 4.412-.989.67-1.764 1.579-2.647 2.367" fill="#f7efe6"/><path d="m186.6003 163.1964c-.04-.216 0-.4.21-.514.025.21.001.4-.21.514" fill="#f3970e"/><path d="m117.1936 178.0621c-.293-.064-.587-.128-.226-.492.203.105.243.286.226.492" fill="#ef8109"/><path d="m209.4001 190.7828c-.014-1.225-.068-2.414-.431-3.629-.878-2.943-4.276-4.218-6.615-1.754-.127.133-.329.196-.496.291-.398.561-.795 1.122-1.193 1.684-.231 3.095-1.334 5.948-2.571 8.736-1.053 2.375-2.558 4.473-4.533 6.201-.06.189-.126.376-.181.567-.626 2.159-1.712 4.161-1.796 6.508-.113 3.14-.184 6.28-.236 9.42.636.335 1.272.669 1.908 1.003 1.941.867 3.888 1.148 5.721-.202 1.245-.917 2.159-2.172 3.085-3.398.117-.155.22-.32.33-.481.158-.958.696-1.774.995-2.679 1.456-4.417 2.706-8.898 4.414-13.236.535-1.36 1.195-2.949.58-4.402-.542-1.28-.178-2.192.401-3.214.252-.446.415-.942.618-1.415" fill="#e95f10"/><path d="m143.7156 201.7355c1.047-.036 2.092-.148 3.124-.335 1.483-.271 2.639-.977 3.5-2.223.11-.159.214-.346.182-.537-.077-.472-1.024-1.424-1.338-1.872-.493-.704-1.244-1.179-2.042-1.477-1.5-.562-3.315-.507-4.7.339-2.493 1.523-5.062.626-7.026-1.341-.147-.148-.297-.303-.488-.388s-.437-.085-.587.06c-.113.108-.151.275-.150019.431.001019.281.110019.549.229019.803.64 1.374 1.124 2.819 2.042 4.049.505.676 1.066 1.339 1.802 1.75.69.386 1.489.525 2.274.615 1.054.12 2.117.162 3.178.126" fill="#e95f10"/><path d="m175.7576 180.1105c-1.099 2.336-2.415 4.562-3.804 6.735-.632.988-1.295 1.955-1.928 2.942-.593.925-.855 1.991-1.427 2.92-.588.958-1.314 1.821-2.037 2.679-.675.8-1.35 1.6-2.065 2.365-1.708 1.824-3.689 3.508-4.672 5.806-.318.744-.523 1.536-.882 2.261-.208.421-.467.814-.724 1.207-.662 1.007-1.323 2.015-1.984 3.022-.204.311-.416.63-.726.834-.254.168-.556.246-.854.313-4.211.953-8.635.589-12.896.221-.507-.044-1.028-.092-1.485-.317-1.022-.502-1.484-1.706-2.129-2.575-.689-.93-1.36-1.96-1.946-2.964-1.049-1.799-2.078-3.611-3.025-5.466-1.286-2.517-2.518-5.073-3.423-7.741-1.172-3.456-2.191-6.984-3.647-10.317-.787-1.802-1.469-3.649-2.077-5.518-1.01-3.103-1.817-6.267-2.601-9.433-.431-1.745-.831-3.499-1.313-5.231-.465-1.677-1.114-3.257-1.623-4.913-.066-.215-.132-.43-.198-.644-.291-.949-.56-1.882-.792-2.845-.385-1.598-.799-3.257-1.841-4.529-.827.206-1.075 1.245-1.144 2.094-.333 4.142-.335 8.839.689 12.892.618 2.447.919 4.958 1.165 7.465.121 1.237.229 2.474.357 3.71.12 1.16.05 2.363.37 3.489.597 2.101 1.308 4.155 1.942 6.254 1.322 4.369 2.423 8.809 3.986 13.102.774 2.123 1.783 4.16 2.68 6.239.14.326.248.666.371.999.958 1.726 1.901 3.459 2.658 5.285.623.384.742.996.751 1.659.108.044.276.058.318.138.835 1.563 1.689 4.233 3.257 5.13 1.602.917 3.563.999 5.362 1.072 1.096.044 2.192.089 3.288.134.354.014.757.007 1.016-.214.033-.027.063-.058.091-.093.338-.424.206-.879-.104-1.298 3.038.469 6.141.518 9.102-.204.292.106.625.099.942.089 1.066-.031 2.148.039 3.186-.211 2.356-.569 2.582-2.769 3.565-4.637 1.109-2.108 2.575-4.014 4.267-5.685 1.256-1.24 2.527-2.488 3.554-3.93.708-.996.865-2.118 1.353-3.181.499-1.087 1.215-2.07 1.761-3.135.603-1.177 1.138-2.395 1.676-3.613.336-.759 1.097-1.408 1.565-2.134.583-.907 1.14-1.831 1.679-2.765 1.055-1.827 2.041-3.693 3.026-5.56 1.003-1.9 1.475-3.852 2.012-5.907.513-1.963 1.26-3.91 2.152-5.748.373-.768.696-1.566 1.169-2.266.613-.906 1.274-1.708 1.406-2.84.075-.651-.034-1.307-.149-1.952-.465-2.598-1.041-5.177-1.728-7.726-.158-.587-.407-1.261-.992-1.425-.65 1.386-.951 2.907-1.462 4.35-.569 1.607-1.448 2.417-2.526 3.627-1.083 1.215-1.803 3.014-2.654 4.407-.319.523-.595 1.054-.504 1.674.472 3.234.601 6.486.739 9.747.03.706-.071 1.433-.093 2.156" fill="#e95f10"/><path d="m151.5993 212.6656c.06-.01.119-.02.179-.03-.376-.053-.735-.059-1.076.059.299-.021.598-.036.897-.029" fill="#e95f10"/><path d="m204.2468 78.9752c2.99 2.291 2.31 6.893 1.015 9.918-.598 1.397-1.529 2.641-2.253 3.974-.754 1.388-.293 2.729.212 4.182 1.623 4.667 2.861 9.468 3.698 14.339.036.212.069.446-.042.63-.108.179-.319.262-.515.332-3.458 1.245-7.028 1.67-10.659 2.199-3.797.553-7.605 1.041-11.423 1.425-2.334.234-4.668.468-7.006.645-5.186.392-10.096.674-15.196-.577-3.026-.742-5.666-.155-8.675.385-4.802.862-9.638.266-14.486.43-.4.014-.806.031-1.19.144-1.151.341-2.01 1.309-3.165 1.713-1.512.53-3.05.85-4.66.828-3.278-.046-6.316.438-9.238 2.035-1.981 1.082-3.596 3.606-4.646 5.556-1.645 3.054-2.426 6.585-2.117 10.048.094 1.046.171 2.338-.721 2.894-.295.183-.65.243-.996.274-.836.074-1.577.01-2.239-.177-1.612-.454-2.757-1.637-3.679-3.342-.78-1.442-1.124-3.072-1.652-4.625-.491-1.443-1.146-2.83-1.565-4.295-1.722-6.019.635-12.878-2.061-18.529-.701-1.468-1.729-2.808-2.078-4.397-.349-1.591.025-3.243.463-4.811.499-1.784 1.083-3.543 1.75-5.271.608-1.574 1.313-3.164 2.518-4.346 2.026-1.987 4.808-2.518 7.398-3.385 1.776-.594 3.433-1.235 4.934-2.377 1.474-1.12 2.723-2.5 4.143-3.684 3.344-2.788 7.629-4.429 11.98-4.588 2.316-.085 4.625.219 6.94.17 2.466-.052 4.36-.771 6.548-1.791 4.136-1.929 8.08-4.51 12.701-5.093 4.806-.605 9.68.201 14.383 1.358 1.712.422 3.419.892 5.034 1.599 1.495.654 2.898 1.505 4.388 2.173 2.457 1.101 6.087 2.344 8.795 1.969 3.482-.481 6.812-.508 10.208.553 1.119.349 2.223.802 3.154 1.515" fill="#fefdf7"/><g fill="#372817"><path d="m322.9216 30.7497c-2.991 6.248-7.565 9.501-11.696 11.052-.145-1.429-.691-3.964-2.703-5.418 1.072 1.93.768 4.876.583 6.087-1.515.383-2.907.545-4.064.56.141-1.625.247-4.995-1.601-7.347.464 3.1-.37 5.678-.881 7.197-.792-.089-1.607-.218-2.44-.39.344-2.192.718-5.47-.89-8.103.569 2.99-.557 5.688-1.323 7.554-1.226-.353-2.48-.799-3.747-1.344.527-1.704 1.702-6.451-.215-9.936.176 4.579-1.765 7.648-2.488 8.625-1.086-.587-2.174-1.242-3.253-1.987.915-1.57 2.478-5.228 1.206-10.472-.175 4.53-1.333 7.127-2.88 9.237-.719-.56-1.435-1.149-2.141-1.786-.233-.211-.455-.411-.683-.615.894-1.666 2.695-5.795 1.277-9.967-.341 4.61-2.129 7.524-2.865 8.546-.999-.885-1.944-1.7-2.863-2.456 1.045-2.329 3.028-7.924.275-12.137.327 4.24-1.316 8.721-2.141 10.664-1.039-.781-2.07-1.483-3.125-2.11.828-1.77 2.524-6.354.839-11.578-.089 5.408-2.098 9.327-2.788 10.52-1.093-.535-2.24-1.001-3.475-1.405.735-2.368 2.342-8.458.594-11.76-.295 5.421-2.051 9.454-2.895 11.106-.05-.012-.096-.026-.147-.038-.717-.172-1.422-.316-2.117-.441.413-2.999 1.11-10.423-1.427-14.244.882 4.198-.188 11.529-.584 13.94-1.028-.126-2.024-.201-2.99-.239.196-2.416.078-10.923-3.89-15.537 1.326 4.03 1.75 12.626 1.857 15.51-1.214.022-2.37.102-3.457.231l.209-.084s1.054-9.61-6.708-15.98c4.214 6.336 4.159 14.231 4.049 16.451-.855.167-1.651.356-2.389.561-.438-2.531-2.22-10.122-9.272-15.177 4.48 7.699 5.43 13.965 5.629 16.472-.411.187-.782.369-1.081.535-.278.155-.563.315-.847.476-.905-3.186-3.738-10.812-10.989-15.215 5.624 6.506 6.849 15.136 7.086 17.509-.942.568-1.567.955-1.567.955-.365-.671-2.267-6.911-5.506-9.07.755-.108 1.781-.486 3.563-.486-3.563-4.697-6.155-4.535-8.963-4.373-.139.107-.271.202-.398.291 1.066-.992 2.004-3.444.614-5.474-2.002 1.317-4.232 1.912-5.995 2.178 13.682-10.656 31.083-12.713 48.38-3.048 17.213 9.617 22.801 22.575 31.223 25.53 5.225 1.834 12.958 1.928 21.451-4.334.622-.459.966.1.649.764m-47.604 8.712c-.107-.972-.249-3.4-1.976-4.471.364 1.306.06 1.852-.183 2.095-2.807-.648-4.865-3.94-6.566-5.263 1.808 1.161 7.748 2.7 10.928 2.39 1.839 1.542 3.701 3.074 5.195 4.169-.52.757-3.834 2.214-7.398 1.08m-13.245-14.254c4.417.743 7.541 2.564 9.698 4.242 1.036.806 2.392 1.941 3.852 3.17-2.497-.121-7.194-.607-13.55-7.412m-22.244 4.104c10.366-1.458 14.902 5.615 20.084 11.662-8.584-5.993-12.831-7.343-18.122-7.343 1.458-.324.9-1.89 7.109-.864-1.07-1.097-7.017-2.952-9.071-3.455m28.762 24.89c6.715 5.022 11.782 9.824 18.707 11.642.297.085.637.168.668.405.02.153-.309.361-.506.465-2.113 1.111-7.485 2.451-16.406 1.686-7.559-.648-15.916-5.224-27.643-22.783 1.782-1.296 5.021-1.62 9.071-1.62-4.104-2.484-11.986-1.728-11.986-1.728s6.263-2.051 11.661-.647c-3.886-3.24-10.149-3.348-13.443-2.484 2.592-4.373 8.061-3.953 15.387 1.133 5.877 4.08 7.774 8.909 14.49 13.931m6.839 41.423c1.135 9.827.534 18.767-.845 22.766-1.378 4-4.611 6.266-4.611 6.266s5.764-13.873 5.456-29.032m-8.009 52.386c-7.098 8.781-14.615 10.174-14.615 10.174s11.013-5.994 14.9-18.303c-5.02 5.507-7.936 6.317-7.936 6.317s6.964-7.181 8.476-10.636c-1.943.648-3.023 1.728-5.398 1.512 1.285-1.286 4.928-3.081 9.848-10.954-.313 11.472-3.128 19.233-5.275 21.89m-13.158 30.42c3.601-3.132 14.771-14.893 15.509-20.646-.916 13.499-11.516 18.729-15.509 20.646m4.373 40.815c-1.943 3.888-5.068 7.145-7.126 8.747 4.408-11.175 1.083-16.069 6.344-26.483.718 4.92-.837 14.821-.837 14.821s2.961-1.303 4.858-5.183c-2.725 24.275-.537 37.547 2.099 46.587-5.94-14.565-6.427-20.737-5.338-38.489m4.05-41.14c-7.452 10.528-4.285 15.388-11.41 25.915 3.886-12.957.983-18.571 11.41-25.915m-15.171 53.126c-.433 8.638 2.159 21.596 2.159 21.596s-7.781-9.717-2.159-21.596m-10.582 1.457c8.853-21.325 1.936-29.314 14.577-44.541-6.641 12.796-2.43 25.915-14.577 44.541m-30.019 29.857s19.437-7.99 32.394-23.972c-4.32 16.845-32.394 23.972-32.394 23.972m-6.485-9.069c6.263-6.911 9.509-18.574 14.475-22.893-3.67 5.184-1.734 15.118-14.475 22.893m-.749-42.869c-2.699.324-4.063 1.248-4.866 1.826.087-5.173 3.813-6.145 4.218-9.384-1.296 3.563-9.799 5.588-9.394 16.304 2.052-3.455 3.131-3.67 4.967-4.535-3.131 8.962-.432 18.573-7.991 26.347 1.512-3.887 2.7-7.883.972-10.582-.972 6.478-5.398 9.179-5.398 9.179s4.966-7.883 2.159-18.465c-.648 9.286-2.159 19.868-18.039 27.633 10.012-7.43 12.565-15.233 13.179-21.478.619-6.281.039-13.158 5.184-18.681-10.042 6.803-5.622 20.722-9.726 24.826.217-3.24-.431-5.184-1.079-6.479.115 8.864-2.585 14.047-9.927 20.094 3.131-3.455 5.939-7.883 5.831-17.276-.318 5.084-4.643 13.928-12.202 16.844 4.643-4.859 7.242-7.656 7.235-16.197-1.08 4.967-3.348 8.423-6.054 10.356 2.706-4.417 2.499-13.431 7.133-20.505-1.511.755-3.347 1.835-5.398 4.318 1.187-3.347 3.13-4.858 4.535-6.586-9.719 4.535-15.765 15.116-17.601 19.004.216-2.808 1.296-10.69 8.638-18.141-4.859 2.16-9.502 9.719-12.093 16.629-.209-4.093 2.584-10.916 5.5-14.803s9.185-9.6 13.504-11.976c-8.962 2.16-18.363 12.3-18.363 12.3s2.49-7.764 12.209-13.595c-6.453 1.295-13.795 6.748-15.847 9.556 1.188-4.859 5.271-10.086 8.935-13.335-4.42 1.737-9.394 8.314-9.394 8.314s.864-4.751 4.967-9.718c-8.422 3.239-12.201 14.901-12.201 14.901s-1.951-15.235 12.303-23.334c-7.876 1.414-13.761 9.242-13.761 9.242s-.972-5.669 5.023-9.841c-1.784-.849-5.617-.362-9.072 2.229 3.887-8.746 15.002-7.352 15.002-7.352l-3.887-2.808c7.126-.216 7.019 5.615 22.082-1.512-4.212 1.08-11.176 1.296-10.205.972.973-.324 3.355-2.149 3.679-4.093-9.719 4.535-14.368.368-14.368.368s7.45 1.026 11.337-1.89c-5.83 1.404-13.051-.088-14.678-1.826-.965 2.17.425 5.012 1.397 6.307-4.211 1.08-10.474 5.345-10.474 5.345s-.371-8.25 6.587-15.387c-5.662 3.25-9.387 9.027-9.496 11.726-.647-.648-1.403-3.671.54-6.587 1.944-2.915 4.212-4.427 3.24-9.718-1.181 2.71-3.023 6.803-6.479 9.395-.216-4.212 3.024-4.86 2.916-8.423-.973 2.916-6.263 3.239-10.805 12.192-2.428 4.785-2.268 8.098-5.183 12.957-2.508 4.179-3.411 5.73-3.821 7.318-.499-1.438-1.241-2.964-2.327-3.96.943 3.302 1.235 6.674.953 9.89-.216 1.077-.415 2.264-.548 3.526-.203 1.919 1.377 5.264.162 8.989-.081-3.644-2.727-4.589-3.694-6.017.516 2.416 2.236 2.778 1.345 6.908-.972-2.268-2.349-3.645-3.482-4.373-.864 4.967-.783 7.315 1.917 10.015-.972.108-4.104-.432-5.183-1.188-.108 1.512.976 2.949 1.511 3.671-2.538-.143-7.423-1.279-9.502-5.939-.648 3.24 1.62 6.263 3.131 7.019-3.131.54-7.342.108-7.99-8.314-1.005 3.519-1.644 6.713-1.179 8.672-.928-.607-1.897-1.782-2.525-4.02-.49-1.745.249-4.221-.507-8.648-1.188 4.32-2.079 6.544-2.074 8.315.005 1.474.322 2.705.616 4.103-4.049-.81-4.905-5.727-3.563-8.747 2.591-5.83 1.831-9.564 6.155-15.062 4.373-5.561 5.966-8.432 9.556-14.415 5.345-8.908 7.774-15.387 10.528-21.542 4.258-9.519 3.743-14.219 15.273-21.652.114-.062.219-.12.306-.17-.006-.005-.016-.009-.022-.014.016-.01.03-.02.046-.03-.023.005-.045.012-.068.017-.583-.394-3.052-.733-3.843-.839 3.556-2.083 10.698-1.77 12.607-1.643-.002.011-.003.026-.004.035 2.267.163 4.535 1.296 4.535 1.296s3.275-7.072 10.204-11.175c-.891-.405-2.591-.648-4.373-.486.459-.783 3.401-2.349 5.993-3.159-.486-.486-1.782-1.053-2.511-1.376 2.724-1.443 6.445-3.077 10.009-3.347 3.941-1.349 6.766-1.592 9.508-1.674.21.336-.403 2.121-1.849 3.594-2.727 1.158-5.404 1.511-7.221 1.264 1.35 1.62 6.722.81 6.722.81-.891 1.458-1.458 2.673-6.722 5.264 2.025.081 3.806.162 7.289-.566-4.698 3.806-14.254 3.887-19.436 9.718-.162-1.62 1.943-5.184 4.859-6.641-3.582.918-10.852 5.669-11.014 8.26 8.098 3.078 24.889 16.899 33.473 22.244 3.82 2.379 12.235 7.707 16.629 11.661 4.319 3.888 12.525 6.911 17.061 8.855 1.021.437 10.15-.216 17.06 4.967.648-3.455-3.285-4.32-1.3-4.41 1.157-.054 5.188-.557 7.131 3.006.757-2.081 6.484-6.555 11.086-8.069.047.063.101.121.144.187-3.24 1.943-7.343 6.046-7.991 8.854 3.888-3.671 7.127-5.507 9.718-5.939-4.154 2.547-6.756 7.533-8.03 11.373-.414-1.509-1.205-3.313-2.659-3.706-.972 2.483.756 3.239-5.291 9.286.215-2.052-4.535-10.474-9.077-10.16 6.478 5.399 5.406 18.798 5.406 18.798s3.023-.864 7.774-7.559c-.108 14.362-7.774 16.197-10.474 24.404-.641-2.744-.432-9.07 1.511-13.174-5.074 3.888-2.807 11.986-7.666 17.492 3.131-4.642.108-14.144.108-14.144s3.563-6.911 1.592-11.932c-2.051 9.286-7.639 16.359-7.639 16.359s-1.619-12.31 2.376-16.737m-14.584 42.653c4.535-3.455 10.805-14.47 10.805-22.244 2.375 12.957-3.462 19.22-10.805 22.244m-34.978-5.832c5.398-8.962 2.429-13.282 8.854-19.868-1.08 2.591-2.376 14.037-8.854 19.868m-4.752.756s3.24-3.671 5.399-12.31c1.512 8.639-5.399 12.31-5.399 12.31m-8.638-14.793s-1.079-12.526 8.207-17.061c-5.399 5.183-8.207 17.061-8.207 17.061m-3.887-5.183c.432-4.319 1.296-11.662 5.615-14.254-2.592 5.184-3.24 11.662-5.615 14.254m-19.112-33.366c.432-1.404.593-1.997 1.188-4.211.181-.677 1.187-1.458 1.943-2.051-.324 2.159-1.404 7.126-2.268 7.774-.387.291-1.262-.216-.863-1.512m-.692 17.89c-.668 1.325-1.777 1.403-5.082 2.033.105-.433.675-1.389.915-1.458 1.416-.412 1.962-.48 2.267-1.08.231-.454.351-.877.594-1.809.168-.641-.421-.941-1.35-.675-1.005.289-2.324.378-3.091.406-.042-.665-.025-1.272.034-1.842 1.575-.1 5.649-.475 5.649-1.695 0-1.221-3.664-.892-5.071-.72.268-.697.601-1.342.975-1.967 1.51-.111 3.434-.256 3.82-.306.654-.084 2.269-.783 3.083-3.486 1.179-3.911 3.436-10.537 4.092-15.721 1.406 1.168.909 3.527 1.263 7.401-2.121 8.287-5.206 15.182-8.098 20.919m-33.376 26.112c-.486 4.049-2.753 4.697-2.753 4.697l1.782-10.69s1.365 2.712.971 5.993m-8.26 5.182c-1.512 1.512-2.7.594-2.7.594l2.862-12.255c-.015.049 1.35 10.15-.162 11.661m.364-77.068c1.133 11.345 3.294 24.842 3.642 26.237.646 2.592 3.257 1.961 6.564 1.65-.025-.025-.052-.061-.078-.091.669-.012 1.209-.149 1.656-.33-.719.928-1.466 1.883-2.222 2.853-3.706.514-7.843.38-8.301-1.485-1.889-7.689-6.896-52.013-6.641-65.05.134-6.828 5.42-6.1 8.04-6.364 2.621-.264 6.363-.538 7.06 3.256-1.469-.114-4.513-.105-6.866.099-3.456.301-6.036 1.238-5.91 3.74 1.186-1.625 12.783-2.607 13.008-.499.466 4.351 2.957 33.497 3.365 51.722.008.396.022 1.21.163 2.014-2.188 2.468-5.609 3.833-7.604-.832-1.78-4.16-3.149-10.092-4.495-17.103-.68-3.537-1.828-4.283-1.381.183m22.473 4.993c-.053-3.888-1.133-22.352-1.133-32.88 1.613 1.467 1.93 5.409 2.159 11.932.277 7.881.186 18.584-1.026 20.948m4.698-13.282c-.324-13.119-1.134-17.978-1.62-27.696-.049-.97 2.345-2.078 2.591 1.943.54 8.801 1.08 21.11-.971 25.753m-4.391-31.566c-.078-1.888-.03-3.921 3.202-4.146 2.047-.143 2.907-.266 5.041-.270014 4.005-.007986 4.029 3.454014 4.029 3.454014s-1.861-.304-5.258-.121c-3.014.162-6.631.442-7.014 1.083m-39.503 87.607c8.477-.859 10.69-1.781 14.955-3.563-11.986 1.128-18.032 0-18.032 0s5.132-2.249 19.71-4.51c-7.632.333-18.807 1.343-21.866 1.934-5.021.969-6.811-1.676-7.238-2.445-10.697-19.273-16.026-43.897-18.498-61.952 1.284.293 2.581.786 3.37-.28.37 3.813 1.786 15.031 6.597 29.784.609 1.867 1.262.632.81-1.717-2.592-13.471-4.93-36.609-4.93-36.609s1.617 5.022 3.885 5.023c-.544-4.365-.051-14.356.118-17.403.074-.045.138-.101.214-.144 2.675-1.517 5.751-3.183 8.504-2.695 2.754.487 4.39.394 7.614-1.293.531-.278.963-.594 1.328-.935 3.285-.44 9.55-1.194 11.548-.841 2.754.488 7.622-1.802 12.481-1.478-.972-1.296-4.543-.947-6.973-.462-2.429.484-3.402 1.132-7.288.158-2.543-.637-6.195.112-8.417.706.248-.535.437-1.085.617-1.622 2.204-.649 6.838-1.714 10.184-.4-1.69-2.21-7.201-1.916-9.313-1.714.591-.997 1.518-1.756 3.368-1.993 6.317-.806 9.721-8.256 13.61-9.55 3.887-1.293 5.831-.969 8.746-.319 2.915.649 4.21 3.241 6.801 2.594 2.592-.647.973-1.295 4.86-2.265 3.888-.97 8.423-.321 10.043-1.291.949-.57.792-1.247 1.342-1.583.888 1.588 1.141 3.635 1.141 3.635s-10.907 1.021-15.443 2.315c7.454.182 14.74-.48 20.246.495-7.451.968-16.406 1.045-22.076 3.148 9.832-.252 17.054-.883 22.399.091-7.775 1.454-16.853 1.762-21.713 3.541 10.906-.696 18.146-.571 22.195.078-12.213.81-21.865 2.526-21.865 2.526s11.237-.592 17.731.76c-9.853-.716-21.297 3.057-27.765 1.476 4.047 3.469 19.569-1.442 28.274-.352.377 1.117.737 2.604.427 3.688-5.272-1.095-11.565-.535-15.118.89-3.436 1.377-2.258 4.892-2.012 8.421 1.366 19.621 1.746 45.272 2.108 52.251-.288.662-.571 1.301-.847 1.913-.314-2.912-.83-7.587-2.305-9.799 0 3.997.193 10.976.281 13.962-.095.176-.19.349-.281.508-.391.684-.904 1.467-1.499 2.319.088-1.414.058-3.221-.011-5.128.158-13.085-.967-43.667-3.367-60.039-.453-3.088-1.652-3.903-4.727-4.338-1.176-.167-3.478-.138-4.937-.098-.14.017-.528.051-1.33.111-3.132.236-5.765.577-7.7 1.473-2.488 1.152-2.626 2.886-2.494 6.939.427 13.121 3.353 52.805 7.467 69.931.441 1.833.749 2.586 4.765 2.361.681-.039 2.315-.139 3.968-.247-1.811 2.382-3.509 4.727-4.783 6.809l-9.971 2.15 8.862-.188c-.581 1.141-.97 2.159-1.087 2.995-.075.537-.175 1.065-.284 1.589-1.062.221-5.895 1.061-16.399.679m-4.697.973c-1.944.809-6.154-4.536-3.239-4.374 1.293.072 1.621.945 2.348 1.782.913 1.051 1.973 2.14.891 2.592m-26.756-26.46c.141.742.416 1.555.841 2.407-.648.405-1.781-.081-3.077-.648.081 1.215.972 2.511 2.429 3.32-5.021.972-9.394-6.316-7.126-12.471-2.916 1.134-3.564 5.507-4.373 6.479-1.296-1.944 3.995-12.418 6.803-14.578 2.118-1.629 5.305-4.329 6.745-5.558247.07-.060753 2.372 11.175247 6.475 22.188247-1.562.361-5.702.97-8.717-1.139m-13.304 15.877c-1.08-.647.756-3.239 3.563-12.417.864 7.45-2.483 13.065-3.563 12.417m-2.915-4.751c-.756 1.404-3.348 2.16-3.672 1.944-.323-.216 2.7-4.211 5.831-11.878.324 3.239-1.403 8.53-2.159 9.934m101.122-79.742s.445-2.591.971-1.944c1.257 1.546 1.134 3.726 1.215 4.535.081.81-1.082 1.659-1.255.527-.364-2.389-.931-3.118-.931-3.118m1.801 11.137c.313 2.17.932 9.761.932 11.056-.001 1.296-2.045 4.446-2.045 4.446s-1.246-13.227-1.462-15.161c-.215-1.933 2.261-2.511 2.575-.341m-91.133.04c-1.053-2.106-2.727-6.885-2.727-8.639 0-2.267.543-2.745.993-4.024.393-1.116.727-2.756.838-4.184.325-4.21-2.116-6.223-2.912-7.775-2.05-3.996-.425-15.657 9.618-18.028 6.194-1.463 7.559-2.372 10.153-5.287 2.592-2.914 5.832-4.532 9.396-4.207 3.563.326 6.479-.807 11.662-2.424 4.286-1.337 6.254-4.446 14.129-6.67 3.037-.588 8.811-.468 13.596.683l-.022.008s5.668 1.622 10.202 4.54c4.534 2.917 8.097 3.243 11.013 2.596 1.195-.265 3.259-.012 5.324.511 3.063 1.742 1.009 4.361.395 6.402-.648 2.16-2.532 2.977-7.126 1.077-2.483-1.027-6.044-.291-7.345 3.668-1.279 3.892-2.809 4.966-4.537 5.181 2.807 1.081 4.967-.43 6.264-2.589 1.296-2.159 5.183-.43 10.15.221 4.559.596 5.621-8.266 8.772-9.472.273 2.663-.279 7.494-2.995 9.258-3.241 2.104-7.776 2.75-9.395 1.778-1.62-.973-6.47-.615-6.966 1.292-1.135 4.373-3.726 1.78-6.317 1.779s-2.351 1.618-4.86 2.751c-3.942 1.78-8.151-3.729-14.09-2.759-3.89.634-5.831.537-9.397 5.826-1.197 1.775-4.2 4.428-6.643 4.856-4.913.862-4.979 7.129-6.969 8.339-1.862 1.132-4.049 1.779-6.322 1.173-2.309-.616-4.88.382-7.608 1.493-3.421 1.392-8.586 4.855-8.912 9.714-.327 4.858 1.305 9.144-2.272 9.069-4.315-.09-4.037-4.051-5.09-6.157m103.261 9.231c.187 2.766-1.534 2.46-1.944-.324-1.588-10.801-3.805-27.73-7.705-42.851.784-.25 1.534-.645 2.26-1.227 1.371 5.223 6.014 24.05 7.389 44.402m89.643-89.811c0-.512.438-.926.978-.926.541 0 .979.414.979.926 0 .511-.438.925-.979.925-.54 0-.978-.414-.978-.925m-.183 3.57c1.617 0 2.929-1.204 2.929-2.69 0-.74-.326-1.409-.852-1.896.592.268 1.149.582 1.637.905.157.408.246.844.246 1.301 0 2.16-1.905 3.912-4.257 3.912-2.35 0-4.257-1.752-4.257-3.912 0-.603.153-1.171.417-1.681.441-.309 1.629-1.042 3.164-1.155-1.135.369-1.955 1.356-1.955 2.526 0 1.486 1.312 2.69 2.928 2.69m32.017 9.306s-2.592-7.289-9.395-10.366c8.261.486 9.395 10.366 9.395 10.366m-11.069 29.802s5.183-7.558 5.4-19.22c4.102 11.23-5.4 19.22-5.4 19.22m-9.933 7.343s4.751-4.751 6.515-9.828c.611 6.804-6.515 9.828-6.515 9.828m8.206-2.376c-.648 7.343-11.662 9.07-11.662 9.07s8.854-4.751 11.662-9.07m-41.464 15.549c-4.211.702-7.45 2.645-7.997 2.366-2.808-2.376-4.96-7.657-1.559-11.22 8.044-.216 12.417 3.941 15.819 4.751-2.754 1.782-6.263 4.103-6.263 4.103m15.224 7.91s-2.753-2.106-8.908-2.268c5.778-2.619 8.908 2.268 8.908 2.268m-19.031-2.511s5.75-5.183 12.877-1.944c-6.803-.81-12.877 1.944-12.877 1.944m-45.269 31.746c-.648-2.753 5.021-9.395 14.577-9.88-6.965 2.429-11.5 5.345-14.577 9.88m51.83 35.471s.647-7.451 7.126-10.042c-2.915 3.401-7.126 10.042-7.126 10.042m31.745-6.155c-6.803 3.24-10.204 6.64-11.661 8.908-.811-1.62.971-7.126 11.661-8.908m29.849-14.198c6.912-3.563 11.129-9.719 13.829-15.442-.872 9.827-6.27 13.175-13.829 15.442m-25.799 52.746c1.727-7.343-.667-20.785 6.964-26.4-4.866 8.261-1.134 17.546-6.964 26.4m-12.418 20.246c.431-6.91 7.342-14.037 7.127-23.755 3.671 9.934-3.672 14.901-7.127 23.755m17.528-26.238c3.197 19.113-7.378 27.858-15.477 33.365 9.394-9.719 13.533-19.922 15.477-33.365m16.269-30.45c-6.498 3.995-5.668 12.147-10.204 19.112.81-5.021-.486-14.739 10.204-19.112m-14.361 4.427c2.051-5.399 7.126-6.209 7.882-8.153-2.375 1.35-10.582 2.214-13.065 5.238 2.591-6.155 15.171-4.968 18.356-9.503-6.35 1.512-8.476 1.194-9.84.758.06-.019.115-.037.176-.056 4.118-.491 12.807-2.02 20.593-7.258-.332.448-.662.874-.994 1.265-9.071 10.69-19.599 13.12-23.108 17.709m31.961-66.731c-3.887 11.23-16.628 12.31-16.628 12.31s10.258-4.212 16.628-12.31m-2.861-1.026s6.64-9.718 7.936-21.38c.649 16.197-7.936 21.38-7.936 21.38m6.479-41.949c3.725 6.64.486 23.971-7.289 29.64 5.993-11.5 9.286-22.298 7.289-29.64m-4.481-1.729c3.671 11.23-1.836 20.409-7.451 25.808 4.535-7.775 7.882-16.737 7.451-25.808m-6.721 3.018c1.106 2.814-.406 9.292-5.481 13.126 3.021-5.587 4.626-9.367 5.481-13.126m-5.151 7.709c-4.379 11.409-11.064 14.4-17.822 18.698 7.774-2.106 14.252-7.073 19.22-11.932-.324 1.836-1.374 4.106-2.376 5.777 4.049-3.239 6.371-8.314 7.99-12.04-.863 12.094-14.417 21.144-13.928 20.948 2.159-.864 6.262-2.429 6.262-2.429s.324 3.725-8.584 10.689c3.887-.647 6.857-1.565 12.255-6.1-6.478 12.094-14.684 13.605-22.027 15.549 3.887 1.511 12.094-.432 12.094-.432s-2.592 3.455-8.207 4.751c2.16 2.376 10.798-.432 10.798-.432s-8.333 6.695-24.098 2.16c7.99 4.751 16.917 4.103 23.882 2.969-2.753 3.077-11.986 4.697-18.788 3.509 2.754 2.646 11.175 2.97 16.844 1.512-.647 1.458-6.694 4.535-12.093 3.671 1.296 2.808 11.931 3.78 11.931 3.78s-11.338 4.697-17.978-2.484c3.239 10.582 23.197 5.831 25.14 3.887-3.023 4.103-13.767 5.076-20.084 4.751 3.24 2.376 13.606 2.16 13.606 2.16s-4.535 4.751-13.174 6.478c4.535 1.512 9.575-1.187 12.166-1.673-6.478 4.373-16.701 4.697-24.476 3.402 11.447 5.182 27.068 1.943 32.305-3.24-1.207 2.807-11.788 9.718-26.042 7.343 3.456 2.807 12.094 2.915 19.005 2.807-12.634 4.103-14.667-1.404-25.249 2.051 7.559.108 10.239 1.944 10.779 2.7-16.196-.648-25.194 10.366-25.194 10.366s1.296-7.45 5.993-9.718c-6.317 1.134-11.662 3.887-15.873 9.718 5.831-17.979 17.979-14.091 24.781-19.436-6.317 1.079-7.18-3.132-16.035-2.052.54-.539 1.404-1.08 3.78-1.404-6.587-1.295-9.979 1.094-14.631 3.456 3.401-.81 11.985-1.458 16.034.648-13.929 3.887-21.865 14.415-21.865 14.415s1.539-6.884 7.046-10.285c-7.937.648-14.011 8.179-14.011 8.179s1.943-6.154 9.394-11.013c-8.098.809-13.281 9.394-13.281 9.394s-.324-9.719 7.774-14.577c-8.422 1.133-11.662 6.802-11.662 6.802s.649-5.345 6.156-8.746c-7.775 1.944-11.338 8.098-11.338 8.098s.323-5.021 6.802-9.718c-6.964 2.106-13.713 12.202-13.713 12.202s3.995-10.258 12.093-14.955c-8.098.324-16.413 10.204-16.413 10.204s.649-4.751 7.181-9.394c-2.591-.162-8.422 3.887-8.422 3.887s3.401-6.479 16.358-8.908c-3.995-.918-15.351 2.321-22.153 5.992 5.399-6.694 11.356-8.53 20.318-11.013-6.155-.54-16.628 2.429-23.107 8.098 3.077-5.021 7.612-8.422 16.034-11.662-7.45.324-13.605 4.05-13.605 4.05s1.62-5.184 11.014-6.803c15.867-2.736 16.359-7.127 31.422-9.556-6.533-.756-6.802-.54-10.366.323.81-1.133 12.31-6.478 26.616.108-4.628-4.753-11.067-7.234-22.891-6.262 2.498-1.541 7.558-4.319 12.849-3.78 0 0-3.455 1.404-4.426 2.16 10.257-1.404 17.816 11.014 37.576-.972-12.957 5.831-25.753 2.592-27.697-3.239 2.268 1.943 11.014 7.612 23.803 1.934-9.388 2.115-15.65-1.178-17.378-4.202 4.32 2.592 15.28 3.563 23.701.324-2.105 0-8.098 0-9.07-.971 8.585-.486 14.491-4.461 15.064-5.346-10.529 4.05-20.517 1.566-20.517 1.566s13.127.712 21.38-7.882c-13.275 6.003-19.004 4.319-19.004 4.319s8.908-2.214 14.253-9.826c4.212-1.62 11.5-5.831 15.879-13.353m-3.461-19.581c1.727 2.376 2.592 5.615 2.592 8.639 2.375-3.024 3.022-6.911 3.022-6.911s1.08 12.31-8.853 22.244c3.455-7.235 4.535-11.878 3.239-23.972m-5.4-1.295c4.644 21.109-4.264 28.722-4.264 28.722l-.649-4.049s-1.457 5.345-5.992 9.232c3.239-5.183 5.183-9.178 6.803-14.253.756 1.512.647 4.967.647 4.967s5.616-10.582 3.455-24.619m-89.622 49.292s-2.051 1.998-1.943 3.725c-.864-1.079-1.401-5.749 1.943-9.826 1.728-2.105 2.322-3.455 1.296-4.859-.389-.533-1.538-2.086-2.483-2.591-1.518-.811-.675-1.516.136-2.036 1.244.173 2.955-.043 4.365-.528 1.411-.485 2.733-1 6.944-3.267 4.211-2.268 6.425-2.241 7.802-2.322.986-.058 2.024.378 3.32-2.537 1.296-2.916.871-4.414-.89-4.104-1.377.244-1.783 1.296-3.726 2.997s-3.494 1.015-5.857 2.079c-2.701 1.214-2.67.439-7.505 2.942-4.196 2.171-7.916 1.243-8.996.325-1.094-.93-.729-3.914-.02-6.615-1.458-1.296-4.452-3.194-.108-9.61.473-.699 1.379-2.144 1.997-3.617 1.675-3.993 4.078-8.048 6.231-10.567 5.02-5.872 12.065-13.322 14.781-16.839 1.049-1.342 1.819-2.287 4.027-4.11-.247.63-.588 1.299-1.068 2.038 2.268-.648 4.536-4.374 6.803-5.831-1.458 1.943-1.134 3.941-1.458 5.021 4.211-4.859 9.719-5.669 13.93-10.528-.162 1.457-1.296 4.049-2.916 5.183 3.995-.486 5.139-2.014 7.613-5.021 2.753-3.348 5.777-3.671 5.777-3.671s-1.242 3.671-2.7 4.966c2.37-.091 5.992-2.429 8.099-5.722.647 2.159-.108 4.211-1.404 5.399 2.838-.433 5.976-1.387 9.484-4.716.328-.251.659-.515.99-.791.277.622-.864 2.915-3.24 4.751 3.995-1.404 5.291-2.592 7.127-4.86-.108 2.16-.54 3.564-1.943 4.644 7.126-1.296 13.281 3.563 13.281 3.563s-3.564-1.296-5.831 0c4.122 1.009 5.944 3.388 6.551 4.393-2.229-1.147-4.603-1.764-5.795-1.693.756.647 2.807 3.887 2.051 7.126-1.187-3.455-2.807-6.587-8.8-8.692 3.401 2.105 3.827 6.199 3.827 6.199s-9.01-10.734-21.596-3.456c10.967-3.067 14.206 4.06 17.708 6.047-2.618 1.621-6.796-3.337-12.343-2.798-.391-.539.689-1.187 2.308-1.403-4.211-.972-7.646 1.254-9.509 4.633 1.627-.314 2.699-.162 3.3.226-2.045.604-3.293 2.646-4.481 3.186-1.188.539-1.524 1.673-2.172 2.429s-.054 2.591.864 1.836c.63-.52.938-1.396 1.637-1.657.317-.12.587.032.869.134 2.744.983 3.661 2.657 7.873 2.818 5.862.226 6.802-3.671 7.45-4.967.986.102 3.131 0 6.047 1.296-.109-.864-.324-1.08-.543-1.528 2.302-.345 4.231-.808 5.563-.524-.431.432-1.511.54-1.997 1.242 5.027 3.141 15.266 7.99 14.943 21.758-1.62-6.317-4.037-14.253-15.536-19.598 11.985 9.556 12.14 19.696 12.14 19.696s-2.592-9.179-8.206-11.014c4.318 4.427 4.535 13.173 2.375 16.413 0-7.127-3.07-11.976-5.5-13.596 3.995 6.911.965 18.779.965 18.779-.074-4.12-.965-8.656-3.564-10.69 1.405 2.267 5.507 22.351-18.463 34.229 18.795-11.652 15.555-28.469 14.037-33.258 1.08 13.174-4.535 18.357-4.535 18.357s3.239-7.559-2.376-16.089c5.399 17.816-6.046 26.671-13.605 30.342 5.183-4.103 7.342-9.07 7.342-9.07s-3.124 3.465-6.688 4.653c.756-1.728 1.944-3.887 1.512-4.643-.972 1.188-2.267 2.915-4.103 3.563 2.858-7.525 3.828-12.246 1.289-18.69 1.511 9.286-1.512 14.901-5.183 17.492 1.296-3.455 3.023-8.206 1.296-11.661-.966 7.46-6.263 9.934-6.263 9.934s2.382-6.361.277-10.572c-2.106 8.908-7.295 10.68-7.295 10.68 1.619-3.132 4.211-8.315-.325-16.197.216 9.61-3.449 12.859-6.04 16.099-2.591 3.239-3.294 9.934-2.16 12.201-2.915-1.133-3.293-7.396-3.131-10.312-1.511.865-2.916 5.831-1.95 7.927-1.127-.962-2.801-4.957-.317-10.14-4.566 5.623-3.401 10.685-.54 14.469 2.687 3.555 5.938 6.587 7.127 10.798.971-5.615-3.564-7.559-3.888-12.742 1.728 3.456 3.269 3.167 5.723 6.371 3.131 4.087 4.864 10.262-1.535 16.121 2.656-4.14 3.403-9.98.887-13.637 1.188 8.746-3.725 12.741-3.725 12.741s3.078-5.938-1.242-10.042c.432 6.263.108 14.577-7.18 16.359 4.211-3.239 5.453-10.528 1.781-17.006.684 2.733.774 5.142.407 7.185-.428-2.253-1.746-5.068-5.374-7.077 4.967 4.21 4.86 18.896-5.507 15.008 6.911-.539 5.616-7.072 4.967-8.53-.54 4.751-4.804 5.885-6.694 4.427 3.239-.216 4.535-3.455 4.171-6.109-.781.678-1.602 1.261-2.441 1.764 1.517-1.672 2.914-4.784 1.077-6.56-3.293-3.186-1.62-8.045-1.62-8.045m46.161-86.653c-3.401 3.563-5.344 8.017-5.344 8.017s-1.782-5.75 5.344-8.017m12.04 4.103s5.399-4.643 5.183-10.15c4.103 6.155-5.183 10.15-5.183 10.15m11.122-13.389c6.047 1.511 7.558 9.502 6.047 12.525-.864-4.967-1.512-7.558-6.047-12.525m-42.47 9.152c2.006-2.537 5.703-4.239 5.703-4.239s-5.417-2.429-4.122-5.507c1.458.648 3.636 2.43 8.495 1.782-.647-1.134-2.34-4.05.252-6.965 1.042 2.664 3.787 3.594 6.479 2.915 3.211-.809 6.93-2.654 10.378-3.349-1.359.581-2.853 1.625-4.169 4.051 6.262-4.751 12.013-3.233 12.813-2.645.477.35 3.807.081 5.993-.81-.216 2.267-2.052 3.158-3.023 3.563 2.213 1.539 5.291 4.536 4.319 9.557-2.43-5.184-7.204-8.159-7.883-6.425-.216 5.722-4.643 8.53-4.643 8.53s.517-1.848-.648-5.507c-3.995 5.183-9.66 5.935-9.664 5.831 0 0 1.976-2.002 2.652-5.05-4.757 4.186-6.593 1.27-11.453 9.045.067-1.722.417-3.281.991-4.628-3.924.957-4.032 8.299-10.168 9.055 3.077-3.563 2.267-5.831 5.831-9.718-7.127 3.887-8.099 6.479-9.071 8.746-1.653-.901-.979-5.427.938-8.232m44.551-23.51c-5.532 2.479-9.451 5.409-10.933 6.999-.025-.003-.051-.006-.076-.01-1.945-.408-4.462-.622-4.462-.622s5.113-6.494 15.471-6.367m98.825 13.521c-2.88 4.786-8.025 13.04-14.988 15.145-6.153 1.86-12.068-.701-15.792-4.427.361-1.225.739-3.533-.214-7.65-.132-.572-.77-.698-.937-.187-.691 2.113-1.507 3.546-2.143 4.544-3.754-3.933-11.344-12.819-22.459-19.113-13.368-7.966-27.185-7.021-37.041-3.848-4.582-1.108-10.842-.946-16.403 1.688-3.246 1.538-6.343 4.292-8.637 6.046-2.056 1.572-5.502 3.06-7.721 3.672-2.518.694-5.022.486-5.345-3.564-4.212 1.296-4.859 7.451-4.859 7.451s-4.211 0-3.726-5.507c-5.344 4.05-2.753 9.88-2.753 9.88s-6.587-.108-7.558 5.885c2.105-2.214 4.319-2.699 5.296-2.073-2.361 1.873-3.912 3.708-4.649 6.932.756-.297 1.404-.459 2.052-.702-1.276 2.642-1.721 6.532-1.836 7.829-2.813 2.7-4.758 5.616-5.189 6.695-3.887 4.104-8.098 9.827-12.633 14.038-4.611 4.28-8.738 14.158-10.792 16.951-3.941 5.507-3.563 9.556-.324 11.338-.54 1.296-1.458 3.239-.81 5.507s3.402 4.049 4.697 4.049c-1.295 5.021 4.05 4.616 3.887 6.884-.161 2.267-1.943 2.51-3.563 5.912-1.619 3.401-.729 7.045.891 9.475 1.62 2.429 2.349 2.672 3.078 3.968-5.649.001-11.696 3.24-14.125 3.24-2.43 0-7.1 1.134-12.195 3.724 1.775.245 4.049.325 4.697 1.458-4.802 1.372-7.366 3.146-8.88 4.642-.785-17.571-6.309-40.125-7.476-44.729 2.976-4.367 6.553-12.28-.318-16.07-8.641-4.766-10.689-2.273-12.957-2.274-2.267-.001-4.855.153-9.879-2.433-9.816-5.055-20.506-3.952-23.826-3.76-7.006.405-12.184 5.436-15.861 6.17-4.859.97-10.581.103-13.497.75-2.916.646-6.48 1.292-11.557 6.473-2.41 2.459-7.884 3.668-9.504 4.315s-5.465 3.15-7.13 7.664c-1.513 4.102-2.812 9.824-1.626 13.064.705 1.924 1.613 2.858 2.59 4.212 1.032 1.431 2.219 4.085 1.401 6.048-2.477 5.942-.992 10.116 1.194 13.176 2.519 3.527 1.841 10.063 5.107 12.501 1.048 11.092 2.128 15.574 3.158 21.302-1.338 1.187-4.079 3.65-7.07 6.526-2.679 2.575-8.639 11.932-9.287 14.955-.647 3.024-5.938 13.551-8.53 17.924-.905 1.528 3.779 2.484 7.991-.647-.728.987-.966 2.191-1.578 2.95-.657.817-.449 1.515.703 1.669 2.809.376 8.217-.624 14.912-3 5.811-2.062 10.148-10.645 10.953-12.308 3.185 8.26 6.676 14.943 9.834 20.634 1.521 2.741 4.103 6.318 5.882 6.266 8.821-.256 18.155-1.202 21.525-1.57-1.497 4.689-3.35 9.089-2.033 14.027-.324 3.887-2.106 11.878-3.078 15.549.82 2.049 8.284-.779 10.731-2.363-.049.227-.097.453-.149.689-.133.606-.43 2.4 1.296 2.268 7.019-.54 14.645-5.349 16.844-8.099 2.592-3.239 2.37-7.893 2.37-7.893s1.95-.151 3.894-.313c-.973-.972-1.944-1.836-2.484-2.808.54.433 4.211-.323 5.183-.647-1.035-1.281-3.852-4.739-3.132-5.291 1.944 1.296 3.546 2.217 5.076 2.159-.144-.177-.113-.759.027-1.573 4.293 3.166 7.736 10.112 15.675 12.634 1.682-2.531 3.08-6.477 3.731-13.765-1.514.79-2.754 1.294-4.698 1.131 4.913-4.054 5.864-10.025 5.909-13.861.306 1.597.628 3.563.843 6.04.648 7.451-.648 13.713-1.842 17.267 2.382-1.502 4.218-5.012 4.218-5.012s1.734.821-.864 6.965c3.03-.638 3.671-.863 5.723-2.699 1.944 2.808-.655 7.872-.655 7.872s3.246-.313 5.183-2.915c3.894 4.06-2.909 9.566-2.909 9.566s5.831 1.457 10.36-5.355c-2.465 5.984-3.012 9.985-2.686 13.002 1.181-.683 6.58-2.41 8.739-2.194-.864 3.023-.014 6.768.648 8.422 2.214-2.214 5.291-3.995 11.77-3.185-.405.567-4.94 2.511-5.021 3.239 5.345-.972 16.521 3.564 33.635-1.781.432 2.159-.431 4.967-6.911 10.689 9.641-.701 22.433-3.563 33.123-7.126.162.729-.162 2.025-.513 2.7 7.688-2.47 16.495-7.305 23.108-12.526 2.159 6.263 8.206 11.014 14.122 12.723-1.813-4.841-2.461-10.995-.517-15.53 2.915 9.394 7.775 18.356 14.875 21.744-3.214-6.411-4.774-22.044-4.06-29.345.872 1.182 2.95 1.635 4.092 1.856-2.547-4.13-4.813-11.392-3.806-19.939.968-8.213-.196-25.928-.296-26.576.075.026 1.008.445 2.458 5.828 2.663-8.606-2.72-14.878-1.987-20.479.588 1.782 1.41 3.342 2.545 3.851-2.375-21.812 10.799-29.154 7.342-49.023 1.296 1.62 2.592 1.728 3.888 1.296-1.512-3.671.216-12.309-1.727-23.323 2.159 1.08 1.511.972 3.239 2.159-.649-6.154-2.916-9.934-3.888-11.877 1.08 1.295 2.376.432 3.672.432-2.808-4.104-1.296-9.718-5.615-21.812 1.62-.324 1.08.216 3.455 1.295-1.728-7.126-4.967-12.525-4.967-12.525 10.683-.314 17.896-4.985 20.542-7.471.692-.651.426-1.021-.289-1.2-13.889-2.854-17.937-6.175-25.684-12.931-.357-.584 2.083.276 4.351-1.02-3.562-.648-6.479-3.401-6.479-3.401s3.24.486 5.832-.972c-5.669-.809-7.451-4.859-7.451-4.859s-.098-.539-.318-1.398c1.613.966 13.167 4.53 22.052.59 6.484 3.769 14.035 7.522 21.998 5.019 3.386-1.064 17.18-6.75 19.273-25.59.324-2.916-1.362-2.99-1.943-2.025" mask="url(#a)" transform="translate(86 .537)"/><path d="m230.4485 190.9527c4.211.162 13.598.962 21.21-5.517-1.133 4.049-6.633 7.461-8.739 8.756 7.451-.756 11.183-4.255 12.526-5.399-.263 1.577-.54 4.104-4.427 7.829 4.535-.486 6.64-2.268 10.204-4.535-2.592 7.288-15.718 8.25-23.006 15.053.809-4.211 5.507-7.775 5.507-7.775s-6.317-1.133-12.31 1.62c1.134-4.373 8.753-6.631 8.753-6.631s-6.803-.809-9.718-3.401"/><path d="m284.4851 66.5514c1.943 8.422 11.445 9.502 11.445 9.502s-9.933-6.047-11.445-9.502"/><path d="m280.8132 70.0065c2.16 7.343 11.345 8.378 11.345 8.378s-7.673-4.059-11.345-8.378"/><path d="m294.5876 81.4625c9.232 7.126.324 15.063.324 15.063s3.887-7.289-.324-15.063"/><path d="m279.5183 73.8937c2.807 9.502 14.685 4.751 11.229 21.812 7.343-18.356-9.934-15.765-11.229-21.812"/><path d="m279.8484 150.1368c11.824-5.021 20.408 4.454 20.408 4.454s-3.239-4.292-1.781-7.531c.647 3.239 4.858 5.83 6.722 5.507-1.054-.891-2.782-5.021-1.054-6.965 2.808 7.558 10.852 7.288 14.47 7.991-3.293 2.132-11.635 2.294-14.631 1.808 1.134 1.134 6.64 6.182 24.564 2.943-3.455 1.727-15.549 5.614-23.755 3.239-8.206-2.376-12.741-7.559-20.515-6.263 1.943-2.16 9.286-2.375 9.286-2.375s-4.454-3.672-13.714-2.808"/><path d="m285.3552 136.8556c3.545-1.404 8.08-.864 12.399.108-.54-.972-2.483-2.591-4.319-3.455 9.502.864 13.659 11.337 22.244 14.469-8.908.162-10.15-10.15-30.324-11.122"/><path d="m300.9041 132.9684c9.07.486 9.232 6.155 11.824 8.26-3.887-.648-3.887-4.211-11.824-8.26"/><path d="m297.9705 142.7945s-6.106-4.147-15.425-5.051c-2.426-.235-5.072.3-8.636-.24 1.512 1.512 4.841 1.187 6.569 2.268-5.507.809-8.89 3.077-10.672 4.21 17.798-6.154 28.164-1.187 28.164-1.187"/><path d="m264.1375 157.1017s9.867-4.751 19.262-3.941c-13.287-4.103-19.262 3.941-19.262 3.941"/><path d="m297.6648 161.9606c-11.014-6.155-20.407.972-20.407.972s8.26-3.402 20.407-.972"/><path d="m222.2956 173.3522c4.644-3.347 12.094-1.512 12.094-1.512s-6.911-.216-12.094 1.512"/><path d="m231.4739 169.2491c-7.774-2.808-11.985 1.62-11.985 1.62s5.183-2.268 11.985-1.62"/><path d="m212.362 164.3902s7.558-2.808 12.957-.864c-5.399-4.967-12.957.864-12.957.864"/><path d="m208.6907 165.254c2.375-4.535 7.612-6.803 13.659-5.723-6.478-4.859-13.875-.108-13.659 5.723"/><path d="m212.5593 156.7774c-2.808.972-5.291 3.456-5.831 6.803s-1.169 5.021-3.544 7.396c-.373.373-2.16 1.728-3.132 5.723-1.404-1.836-.378-5.506 1.889-8.584-3.239 1.944-5.563 6.796-5.377 10.704-1.263-.932-3.207-4.171.356-7.735-.697-.135-3.347-.108-4.426 1.944.648-6.263 6.37-4.319 9.07-7.559 2.699-3.239 3.652-7.72 10.995-8.692"/><path d="m266.5671 70.9347c.399 5.985 5.277 8.039 6.739 15.399.55-5.519-4.958-11.188-6.739-15.399"/><path d="m252.989 72.419c6.641.162 6.991 3.375 6.991 6.452-.971-3.077-2.294-5.48-6.991-6.452"/><path d="m249.615 74.8756c3.563.891 6.479 3.401 6.964 6.317.81-5.021-3.401-6.236-6.964-6.317"/><path d="m238.0608 92.692c.324 3.131 3.995 2.268 5.939 1.62-2.509-.448-4.967-.432-5.939-1.62"/><path d="m243.9997 91.0724c-1.296-.432-3.51.288-1.728 1.08 1.944.864 4.967.648 6.371-.216-1.62.162-3.347-.432-4.643-.864"/><path d="m249.7224 88.8321c-1.458-.162-1.619 1.134.162 1.295 1.037.095 2.019.189 2.946-.036-1.758-.342-1.65-1.097-3.108-1.259"/><path d="m180.4001 196.7838c-3.887 3.401-9.88 13.605-1.782 23.161-2.753-7.45-1.296-9.88-1.296-9.88s.567 4.616 3.645 6.965c-.81-3.077-1.377-4.859-1.134-6.479.648.648 1.701 1.296 2.997 1.215-2.754-4.859-3.24-9.961-2.43-14.982"/><path d="m193.1955 177.5094c-.648 7.774-7.774 14.146-5.507 20.408.756-4.535 8.098-10.852 5.507-20.408"/><path d="m248.7507 104.1378c-5.669 3.887-4.157 14.199 2.483 17.601-1.665-2.393-3.195-5.722-3.448-9.171.641.856 1.829 2.044 3.664 1.72-1.835-1.728-3.833-6.263-2.699-10.15"/><path d="m332.488 47.4493c4.211-2.916 9.88.647 11.662 2.267-2.916-.972-7.451-2.429-11.662-2.267"/><path d="m336.0515 50.6886c2.43-2.592 8.908 1.134 10.689 2.591-2.267-1.296-7.774-2.105-10.689-2.591"/><path d="m339.5613 54.4679c2.807.108 5.723.432 8.746 1.403-1.62-1.457-7.018-2.915-8.746-1.403"/><path d="m276.5017 81.6783c5.938 2.16 5.183 8.908 3.239 11.662.486-3.078.432-8.315-3.239-11.662"/><path d="m289.4587 200.2389c2.592 5.831-3.671 9.07-3.671 9.07s3.239-4.103 3.671-9.07"/><path d="m317.7488 187.2814c-.199.027-.404.066-.612.11.099.298.139.363.612-.11"/><path d="m183.8015 198.2413c-3.078 5.993 1.62 11.176 1.62 11.176s-2.106-7.289-1.62-11.176"/><path d="m173.9216 201.9669c-5.669 5.507-3.401 12.471-1.134 13.281-.81-3.077-1.458-8.746 1.134-13.281"/><path d="m192.7097 167.8453c-6.551-.378-4.751 7.774-3.887 8.422.431-3.671 1.727-6.262 3.887-8.422"/><path d="m274.821 194.0201c-3.078 6.641-12.789 9.566-12.789 9.566s7.774-7.774 3.888-11.553c-1.62 8.638-10.367 9.825-16.529 12.029.75.584 5.669 1.62 8.909-.324-8.26 5.831-10.042 12.471-10.042 12.471s4.164-6.684 10.426-8.627c-3.293 3.941-3.131 8.961-3.131 8.961s4.536-9.879 10.042-11.661c-6.155 6.803-6.971 15.7-6 16.511 2.106-7.613 3.564-10.528 9.233-15.226 5.669-4.696 7.025-9.275 5.993-12.147"/><path d="m238.0608 87.0773c.627-1.379 4.616-2.619 5.993-4.238 1.377-1.62 1.607-2.53 1.701-3.321.139-1.17-.747-1.186-1.053-.648-1.566 2.754-4.103 2.371-5.831 3.564-1.184.818-1.666 3.15-.81 4.643"/><path d="m247.779 79.357c3.887 4.103-.162 6.397-3.482 6.235 3.158-1.7 4.129-2.348 3.482-6.235"/><path d="m262.032 84.6207c5.507-1.971 6.397 1.539 3.563 7.208 1.215-5.588.244-6.803-3.563-7.208"/><path d="m258.4685 64.5099c6.641-2.808 10.69-.594 12.634 1.565-4.104-2.483-7.613-1.943-12.634-1.565"/><path d="m263.5974 60.4606c6.641-2.808 10.69-.594 12.634 1.565-4.104-2.483-7.613-1.943-12.634-1.565"/><path d="m269.3748 57.3292c6.641-2.808 10.689-.594 12.634 1.565-4.104-2.483-7.613-1.943-12.634-1.565"/><path d="m255.5808 69.2877c6.641.162 6.991 3.375 6.991 6.452-.971-3.077-2.295-5.48-6.991-6.452"/><path d="m286.9753 62.4581c1.458 6.776 9.69 2.969 18.68 13.173-2.537-9.664-15.009-8.746-18.68-13.173"/><path d="m291.1863 63.2682c4.491 2.418 9.432.491 13.281 1.025-3.779-2.537-9.718-.863-11.985-4.426-.432.647 0 2.051.117 2.336-1.688-.428-3.38-1.223-5.037-2.671.438 1.954 2.221 2.98 3.624 3.736"/><path d="m359.4285 126.3815-4.751 1.296"/><path d="m286.9031 23.316c-4.859 5.831-10.204 2.753-11.5-.162 3.239 2.105 7.612 1.943 11.5.162"/><path d="m281.0906 47.1793c-.486 3.563-7.289 6.964-7.289 6.964s4.535-3.725 7.289-6.964"/><path d="m111.2937 177.9952c-7.138 2.593-7.343 11.014-5.399 11.878.432-4.319 2.591-8.422 5.399-11.878"/><path d="m288.9187 44.7765c-3.374 2.403-3.348 6.884-2.268 6.452 1.081-.432.109-3.806 2.268-6.452"/><path d="m164.4202 95.5274c3.887.002 4.968-2.589 6.048-3.884 1.081-1.296 4.482-.754 3.617 1.837s-6.968 7.771-9.665 2.047"/><path d="m164.6907 93.7999c1.296-1.295-3.507-4.104-6.747-2.811-3.24 1.295-3.457 3.455-5.4 3.454-1.944-.001-4.049-2.756-7.775.482-2.194 1.905-1.298 4.48-2.379 7.071-1.081 2.592-1.621 3.995-5.186 5.829 8.643-1.42 7.833-7.196 9.507-7.466.679-.11.324 1.188.862 2.114.211.363.576.266.744-.229.79-2.33 1.942-4.4 3.793-5.34 6.587-3.348 11.285-1.809 12.581-3.104"/><path d="m126.6086 137.6222c-2.116.362-3.472 1.09-3.074 6.815.653 9.372 4.186 38.351 10.253 55.517.79 2.237 1.539 2.85 8.702 2.561 5.545-.225 8.621-.926 7.733-4.354-7.217 2.45-13.026 2.033-13.617.298-4.529-13.283-10.04-49.362-9.997-60.837"/><path d="m123.0256 129.9352c.01-.638-.08-1.786.092-2.767.211-1.206.836-2.256 2.756-2.972 3.695-1.378 10.031-1.673 13.558-1.147 2.01.3 3.394 1.326 3.51 3.185 1.403 22.491 3.43 42.928 6.754 67.471-5.824-12.96-8.823-51.72-9.617-59.62-.297-2.955-11.755-2.104-13.635.057-.88-4.485 7.677-4.016 12.713-3.971.001-2.267-3.763-3.186-7.594-2.962-3.83.225-7.733.864-8.537 2.726"/><path d="m133.7483 108.3634c-3.563.322-3.241 4.857-9.074 7.770001 8.585.003999 12.637-8.093001 9.074-7.770001"/><path d="m115.4958 118.5748c-3.016.327-5.905 1.809-6.913 4.57-1.014 2.775 2.101 6.696 2.049 4.968-.098-3.308.547-5.684 5.044-8.856.348-.245.251-.728-.18-.682"/><path d="m150.9255 89.5826c-.323-1.134-9.231-1.786-9.559 6.475 1.997-5.741 9.882-5.341 9.559-6.475"/><path d="m123.4504 187.6979c1.77 7.05 3.763 11.429 5.12 14.377.671 1.456 3.028 3.306 2.544.715-.419-2.241-3.084-7.302-6.755-15.616-.502-1.137-1.188-.59-.909.524"/><path d="m147.6345 194.7565c-1.731-2.31-4.956-7.186-7.544-11.189-.494-.763-1.032-.711-.814.092.889 3.271 2.134 7.194 3.223 9.723-3.261-4.708-5.779-10.682-7.166-14.395-.593-1.586-.824-.916-.648.228 1.431 9.336 3.756 17.483 4.588 17.921 1.437.757 3.188.578 5.163.174.002.005.007.013.007.013s1.768-.386 3.078-.698c1.376-.327.688-1.101.113-1.869"/><path d="m164.1223 133.1305c.162 1.781 2.024 24.673 3.86 37.307-.108-10.367-2.24-36.416-2.321-37.712s-1.701-1.377-1.539.405"/><path d="m138.9153 99.2897c-.809 4.579-5.378 6.36-5.378 6.36s3.05-3.452 4.582-6.659c.393-.825.942-.529.796.299"/><path d="m193.7624 80.5714c2.591.891 1.458 3.807-.567 4.616-2.402.961-4.616-1.457-9.232.567 3.239-3.158 7.838-1.229 8.908-2.105.775-.635 1.526-1.899.891-3.078"/><path d="m134.7253 82.1105c4.945 2.826 8.007.344 9.311-1.221.489-.588.262-1.017-.337-.647-2.495 1.544-6.302 2.111-8.974 1.868"/><path d="m105.4626 110.6168c5.615 3.671.216 9.07.216 9.07s1.944-3.887-.216-9.07"/><path d="m148.4924 205.2062c-.081-.891 1.458-.972 4.859-2.916 2.025 1.539 5.426 1.539 5.345 2.268s-10.123 1.539-10.204.648"/><path d="m363.0945 306.5396c.547-4.727 2.991-14.063 12.407-14.063 10.374 0 12.242 11.27 12.574 15.307-.079.869-.569 1.427-2.302 1.427h-22.843c-.065-1.168.066-1.828.164-2.671m14.085 49.722.644.019c9.834-.287 17.349-2.253 23-4.73 2.507-1.101 7.284-3.944 9.258-6.173 2.999-3.388 6.579-9.52 1.977-15.376-.66.474-3.431 2.804-4.784 4.109-6.221 6.013-14.198 8.627-23.559 9.05-1.132.088-2.326.136-3.616.136-7.217 0-13.263-3.173-15.533-9.911-1.583-4.664-1.757-9.903-1.734-12.533 0-.983.033-1.048.033-1.723h55.203c.033-.779.098-1.704.11-3.142.031-3.98-.491-11.162-5.382-18.181-5.135-7.355-17.639-15.1-37.476-15.1l-1.728.006c-21.854 0-45.201 12.598-45.201 36.991 0 25.828 26.498 36.558 48.788 36.558"/><path d="m186.5549 346.5816c-10.029 0-15.127-11.849-15.127-26.464 0-14.325 4.95-26.464 15.127-26.464 10.03 0 15.127 11.848 15.127 26.464 0 12.784-4.149 26.464-15.127 26.464m.513-63.975c-21.794 0-48.787 9.581-48.787 37.097 0 27.203 26.993 36.47 48.787 36.47 23.021 0 48.796-10.067 48.796-36.47 0-25.834-25.075-37.097-48.796-37.097"/><path d="m5.8567 8.6267c-1.722.25-3.374.573-5.039.693.517 1.453 3.329 5.007 8.005 10.866 7.076 8.865 15.484 6.684 16.096 6.591 96.564-14.54 181.943-7.917 219.527-8.006 1.773-.005 11.065 1.098 11.352-8.36-3.862-2.288-126.237-19.712-249.941-1.784" mask="url(#b)" transform="translate(228 366.537)"/><path d="m241.3401 296.442c1.682 6.906 3.433 14.103 3.433 14.103l6.343-1.586s-1.497-12.921 15.857-12.921c3.401 0 13.952-.16 13.952-.16l-41.122 50.875h.058v7.31c6.6-.018 86.512-.247 86.511-.263-.034-.087-7.489-26.34-7.489-26.34l-6.342 1.586s1.498 12.92-15.858 12.92c-5.563 0-17.341.237-17.341.237l40.687-50.269v-7.993s-37.898-.002-62.084-.001c-9.166-.175-15.101-.826-18.091-1.305-1.876-.3-1.609 1.348-1.501 1.8.702 2.952 2.45 9.882 2.987 12.007"/><path d="m433.0603 332.773c0 13.148-7.672 12.407-13.253 13.408l-.089 7.808h59.446l-.088-7.808c-5.581-1.001-13.253-.26-13.253-13.408v-35.868-26.808c.286-8.354.998-13.631 1.358-15.613.246-1.354-.599-1.664-1.359-1.693v-.088l-46.024 7.05.09 7.808c5.581 1 13.253.259 13.253 13.407l-.067 6.105z"/><path d="m69.8894 321.4703c-1.422 1.06-7.631 6.886-24.222 6.886-12.154 0-24.406-2.86-24.406-6.795v-.012-.002-.054-.16c0-3.879 12.459-6.764 24.406-6.764 16.715 0 22.8 5.826 24.222 6.885-.004.003-.009.005-.013.008.004.002.009.005.013.008m76.707 35.563c-1.499-1.352-10.601-9.81-20.164-18.67-5.272-4.885-14.484-12.991-26.051-19.996 9.646-6.913 28.449-20.936 39.732-29.6 13.662-10.512 30.235-20.282 45.341-25.538 12.434-4.314 24.25-4.591 24.25-4.591s-9.349-11.813-40.238-2.394c-9.322 2.842-20.048 9.853-20.048 9.853s-1.756-5.915-7.853-9.675c-6.113-3.757-15.262-6.436-28.565-6.436-16.993 0-34.638 5.63-34.638 17.531 0 12.165 14.953 13.759 22.527 13.655 8.28-.111 8.717-3.748 8.105-5.736-1.916.419-4.98.801-8.141-.034-4.809-1.298-7.229-4.74-6.714-7.884.445-2.845 4.047-6.646 19.806-6.646 15.41 0 19.282 5.466 19.282 9.506 0 4.057-2.131 7.162-8.525 12.655-5.093 4.362-19.699 14.405-38.532 28.032-8.677-3.651-18.118-6.107-27.879-6.107-1.438-.009-2.346.04-3.549-.053v-21.702l-.005-.313v-6.379c0-13.148 11.96-12.407 17.541-13.408l.089-7.807h-71.346l.09 7.807c5.58 1.001 17.541.26 17.541 13.408v6.379l-.035.509v24.479c-7.219 2.407-15.466 5.964-15.466 13.81 0 6.145 5.895 10.197 15.466 12.943v22.929l.013 5.025v5.179c0 13.147-11.96 11.206-17.541 12.207l-.089 7.807h71.345l-.089-7.807c-5.581-1.001-17.541.94-17.541-12.207v-5.179l.027-2.105v-22.479c8.237-.702 14.516-2.318 18.512-3.632.776-.247 5.454-2.008 7.368-2.824 6.621 7.483 10.286 12.405 10.286 12.405 12.185 15.184 44.196 56.586 90.819 56.586 49.116 0 39.11-17.594 39.11-17.594s-30.939 13.131-74.241-25.909"/></g></g></svg>